<svg xmlns="http://www.w3.org/2000/svg" viewBox="0 0 356.77 78.67"><defs><style>.cls-1{fill:#262626;}</style></defs><g id="图层_2" data-name="图层 2"><g id="图层_1-2" data-name="图层 1"><path d="M95.63,20.41,277.51,9.26a23.66,23.66,0,0,1,7.09.27,19.13,19.13,0,0,1,6.85,3.77,597.08,597.08,0,0,1,59.06,51.13c-22.29,4.81-45.56,6.11-68.65,7.15q-114.8,5.19-229.89,3c-3.82-.07-7.82-.19-11.16-1.63a22.45,22.45,0,0,1-6.48-4.75L5.85,41.32C4.48,40,3,38.48,3.43,36.83s2.9-2.8,5.08-3.52a327.51,327.51,0,0,1,89.32-16"/><path d="M95.63,23.82l109.27-6.7,54.63-3.35,13.83-.85c3.89-.23,8.57-1.2,12.21.58,3.36,1.63,6.31,4.37,9.24,6.65q5.2,4,10.31,8.19,22.41,18.19,43,38.5l1.51-5.7c-29,6.22-59,6.74-88.49,7.91q-45.49,1.8-91,2.44T79,71.62q-11.42-.12-22.85-.33a70.8,70.8,0,0,1-10.5-.46A14.54,14.54,0,0,1,38,67c-5.51-5-10.82-10.22-16.22-15.33l-8.25-7.79-4-3.78c-.62-.59-1.26-1.17-1.86-1.78-.2-.2-.44-.63-.66-.73s-.06-.23-.27.16.07-.06.33-.13c.46-.12,1-.5,1.43-.68,1.6-.63,3.28-1.09,4.92-1.61q5.08-1.6,10.21-3,10.35-2.88,20.88-5a325.67,325.67,0,0,1,42.76-5.9q5.28-.37,10.58-.58c4.37-.18,4.4-7,0-6.82A331.15,331.15,0,0,0,9.44,29.43c-3,1-6.52,1.89-8.41,4.63-2.24,3.25-.5,6.79,2,9.28C8.6,48.88,14.47,54.16,20.18,59.56l8.49,8a63.91,63.91,0,0,0,8.08,7.08c6.18,4.11,14.38,3.36,21.46,3.48q47.26.8,94.55.36t94.51-2.12c15.8-.56,31.6-1.17,47.38-2a418.22,418.22,0,0,0,45.65-4.54q5.58-.93,11.11-2.11c2.54-.55,3.26-4,1.51-5.7q-18.54-18.33-38.66-35Q304,18.59,293.44,10.56c-3.38-2.56-6.75-4.43-11.05-4.78s-9.09.33-13.53.6l-111,6.81L95.63,17c-4.36.27-4.39,7.09,0,6.82Z"/><path class="cls-1" d="M98.52,14.73,280.4,3.58a23.66,23.66,0,0,1,7.09.27,19.13,19.13,0,0,1,6.85,3.77,595.81,595.81,0,0,1,59.05,51.13c-22.28,4.81-45.55,6.1-68.64,7.15Q170,71.09,54.86,69C51,68.88,47,68.76,43.7,67.32a22.45,22.45,0,0,1-6.48-4.75L8.74,35.64c-1.37-1.3-2.84-2.84-2.42-4.49s2.9-2.8,5.08-3.52a327.44,327.44,0,0,1,89.32-15.95"/><path class="cls-1" d="M98.52,18.14l109.26-6.7,54.64-3.35,13.83-.85c3.88-.23,8.57-1.2,12.21.57,3.35,1.64,6.31,4.38,9.24,6.66q5.19,4,10.31,8.19,22.41,18.2,43,38.5l1.51-5.7c-29,6.22-59,6.74-88.49,7.91q-45.51,1.8-91,2.44t-91.09.13Q70.44,65.8,59,65.61a70.74,70.74,0,0,1-10.5-.46,14.51,14.51,0,0,1-7.65-3.84C35.36,56.31,30,51.09,24.64,46L16.4,38.19l-4-3.78c-.62-.59-1.26-1.17-1.86-1.78-.2-.2-.44-.63-.67-.73s0-.23-.26.16.07-.06.33-.13a15.28,15.28,0,0,0,1.42-.68c1.61-.63,3.29-1.09,4.93-1.61q5.07-1.61,10.21-3,10.35-2.88,20.87-5.05a326.05,326.05,0,0,1,42.77-5.9q5.28-.37,10.58-.58c4.37-.18,4.39-7,0-6.83A331.49,331.49,0,0,0,12.33,23.75c-3,1-6.53,1.89-8.41,4.63-2.24,3.25-.5,6.79,2,9.28,5.56,5.54,11.44,10.82,17.15,16.22l8.49,8A63.83,63.83,0,0,0,39.64,69C45.82,73.1,54,72.35,61.09,72.47q47.28.8,94.56.36t94.51-2.12c15.79-.56,31.59-1.17,47.38-2a418.22,418.22,0,0,0,45.65-4.54q5.58-.93,11.11-2.11c2.54-.55,3.25-4,1.5-5.7q-18.54-18.33-38.66-35Q306.91,12.9,296.32,4.88C293,2.32,289.58.45,285.27.1s-9.08.33-13.52.6l-111,6.81L98.52,11.32c-4.36.27-4.39,7.09,0,6.82Z"/></g></g></svg>