<svg xmlns="http://www.w3.org/2000/svg" preserveAspectRatio="none meet" xmlns:xlink="http://www.w3.org/1999/xlink" viewBox="0 0 207.78 146.47">
    <defs>
        <style>.cls-1{fill:#f6f6f6;}.cls-2{fill:none;stroke:#333;stroke-width:0.5px;}.cls-2,.cls-3,.cls-6{stroke-miterlimit:10;}.cls-3{fill:#fff;stroke-width:0.93px;}.cls-3,.cls-6{stroke:#fff;}.cls-4{font-size:2px;}.cls-11,.cls-4,.cls-5{font-family:MicrosoftYaHei, Microsoft YaHei;}.cls-14,.cls-4,.cls-5,.cls-9{letter-spacing:0.02em;}.cls-11,.cls-5,.cls-9{font-size:3px;}.cls-11,.cls-6{fill:#333;}.cls-7{opacity:0.75;}.cls-8{fill:url(#未命名的渐变_2);}.cls-9{font-family:MicrosoftYaHei-Bold, Microsoft YaHei;font-weight:700;}.cls-10{letter-spacing:-0.05em;}.cls-11{letter-spacing:0.02em;}.cls-12{letter-spacing:0.02em;}.cls-13{letter-spacing:0.01em;}</style>
        <linearGradient id="未命名的渐变_2" x1="23.09" y1="130.07" x2="14.4" y2="126.31" gradientUnits="userSpaceOnUse">
            <stop offset="0" stop-color="#ff00b1" />
            <stop offset="1" stop-color="#00cfff" />
        </linearGradient>
    </defs> 
    <g id="图层_2" data-name="图层 2">
        <g id="图层_1-2" data-name="图层 1">
            <path class="cls-1" d="M193.34,0H14.44A14.45,14.45,0,0,0,0,14.44V132a14.45,14.45,0,0,0,14.44,14.45h178.9A14.45,14.45,0,0,0,207.78,132V14.44A14.45,14.45,0,0,0,193.34,0ZM130.15,13.56a2,2,0,0,1-2.05,2H79.68a2,2,0,0,1-2.05-2v-1a2.05,2.05,0,0,1,2.05-2.05h21.38a2.83,2.83,0,0,1,5.66,0H128.1a2.05,2.05,0,0,1,2.05,2.05Z" />
            <polygon class="cls-2" points="28.64 54.97 38.6 47.74 48.56 54.97 44.76 66.66 32.45 66.66 28.64 54.97 28.64 54.97 28.64 54.97" />
            <path class="cls-2" d="M42.83,58a2,2,0,0,0-1.49.62l-1-1a3,3,0,0,0,1-2.2A3,3,0,1,0,36.59,58l-.57,2a2.51,2.51,0,0,0-.62-.08,2.08,2.08,0,0,0-2.09,2.08A2.11,2.11,0,0,0,35.4,64a2.13,2.13,0,0,0,2.12-2.12,2.07,2.07,0,0,0-1.1-1.83L37,58.18a3.43,3.43,0,0,0,1.3.28A3.15,3.15,0,0,0,40,57.92l1,1a2,2,0,0,0-.37,1.16,2.11,2.11,0,0,0,2.12,2.08,2.1,2.1,0,1,0,0-4.19ZM37.1,61.92a1.7,1.7,0,0,1-3.4,0,1.7,1.7,0,0,1,3.4,0Zm-1.45-6.48a2.62,2.62,0,1,1,5.23,0,2.62,2.62,0,1,1-5.23,0Zm7.18,6.34a1.67,1.67,0,0,1-1.69-1.66,1.7,1.7,0,0,1,3.39,0,1.67,1.67,0,0,1-1.7,1.66" />
            <polygon class="cls-2" points="152.88 83.78 162.85 76.56 172.81 83.78 169 95.48 156.69 95.48 152.88 83.78 152.88 83.78 152.88 83.78" />
            <path class="cls-2" d="M159.85,84.45a.4.4,0,0,0,0,.41l0,.21a.57.57,0,0,0,.57.41.22.22,0,0,0,.16,0l4.9-1.44a.59.59,0,0,0,.36-.31.56.56,0,0,0,0-.41l0-.21a.6.6,0,0,0-.57-.41.18.18,0,0,0-.15,0l-5,1.44a.48.48,0,0,0-.31.31ZM165.17,83h.1a.35.35,0,0,1,.26.2l.05.16c0,.1,0,.15,0,.25s-.1.11-.15.11l-5,1.49h-.05a.24.24,0,0,1-.26-.21l0-.2c-.05-.05-.05-.11,0-.21a.28.28,0,0,1,.16-.1l4.9-1.49Zm-5.32.36a.57.57,0,0,0,.57.41h.16L163.1,83a.65.65,0,0,0,.42-.77l-.05-.16a.6.6,0,0,0-.73-.41l-2.58.77a.56.56,0,0,0-.36.72l0,.21Zm.42-.62,2.58-.77h.05c.1,0,.26,0,.26.2l.05.16a.27.27,0,0,1-.16.36l-2.58.77h-.05c-.15,0-.26,0-.26-.21l0-.15a.27.27,0,0,1,.16-.36Zm5.62,4,0-.21a.62.62,0,0,0-.72-.35l-1.19.3a.78.78,0,0,0-.52.72v1.44h-.87V87a.79.79,0,0,0-.11-.36l3-.88a.55.55,0,0,0,.36-.3.77.77,0,0,0,0-.47l0-.15a.6.6,0,0,0-.72-.41l-5,1.49a.54.54,0,0,0-.31.26.48.48,0,0,0-.1.35c.05.06.05.06.05.11l0,.15a.59.59,0,0,0,.37.41h.05l.62.16a.45.45,0,0,1,.25.41v.87h-.56v2.52a1.22,1.22,0,0,0,1.18,1.13v.26a.64.64,0,0,0,.67.57h1.09a.64.64,0,0,0,.67-.57v-.26a1.22,1.22,0,0,0,1.18-1.13V88.61h-.56v-.67a.45.45,0,0,1,.26-.41l.41-.1a.58.58,0,0,0,.41-.72Zm-4-.15a.69.69,0,0,1,.2.15c.06.1.11.15.11.26v1.64h-.73v-.87a.83.83,0,0,0-.51-.67h-.05l-.57-.21h-.05a.17.17,0,0,1-.16-.15l0-.21a.15.15,0,0,1,0-.2l.16-.15h.1l.57-.21,4.23-1.23h.1a.27.27,0,0,1,.26.2l.05.16c0,.1,0,.15,0,.2l-.15.16-3.2.92c-.52.15-.31.21-.31.21Zm3.51.56-.42.1a.83.83,0,0,0-.56.72v.67h-.73V87.17a.52.52,0,0,1,.31-.41l1.14-.31a.27.27,0,0,1,.36.16l.05.2c0,.16-.05.31-.15.31" />
            <polygon class="cls-2" points="111.47 56 121.43 48.77 131.39 56 127.59 67.69 115.28 67.69 111.47 56 111.47 56 111.47 56" />
            <path class="cls-2" d="M121.7,54.77a4.89,4.89,0,1,0,4.9,4.9,4.92,4.92,0,0,0-4.9-4.9Zm4.47,4.68h-1.38a5.91,5.91,0,0,0-1.47-4,4.45,4.45,0,0,1,2.85,4Zm-4.47,4.68c-.25-.06-.73-1.55-.76-4.26h1.5c0,2.71-.48,4.2-.74,4.26Zm-.76-4.68c0-2.71.51-4.2.76-4.26s.71,1.55.74,4.26Zm.17-4.15a12.25,12.25,0,0,0-.57,4.15H119c0-2,.93-3.72,2.09-4.15Zm-.57,4.57a12.52,12.52,0,0,0,.57,4.17c-1.16-.45-2-2.11-2.09-4.17ZM122.27,64a13.32,13.32,0,0,0,.59-4.17h1.5c0,2.06-.93,3.72-2.09,4.17Zm.59-4.59a13,13,0,0,0-.59-4.15c1.16.43,2,2.12,2.09,4.15Zm-2.77-4a5.87,5.87,0,0,0-1.5,4h-1.38a4.43,4.43,0,0,1,2.88-4Zm-2.88,4.37h1.38a5.93,5.93,0,0,0,1.5,4,4.47,4.47,0,0,1-2.88-4Zm6.11,4a6,6,0,0,0,1.47-4h1.38a4.48,4.48,0,0,1-2.85,4" />
            <polygon class="cls-2" points="70.06 83.78 80.02 76.56 89.98 83.78 86.17 95.48 73.86 95.48 70.06 83.78 70.06 83.78 70.06 83.78" />
            <path class="cls-2" d="M83.79,91.29H76.22a2.09,2.09,0,0,1-.06-4.17,2.6,2.6,0,0,1-.11-.79,3,3,0,0,1,5.85-1.07A2.07,2.07,0,0,1,84,87.12a2.09,2.09,0,0,1-.14,4.17Zm-7.55-.42h7.55a1.67,1.67,0,0,0,0-3.33.22.22,0,0,1-.2-.22,1.68,1.68,0,0,0-1.66-1.67.27.27,0,0,0-.15,0,.2.2,0,0,1-.19-.14,2.61,2.61,0,0,0-5.09.79,2.77,2.77,0,0,0,.17.93.24.24,0,0,1,0,.2.26.26,0,0,1-.2.08h-.17a1.66,1.66,0,0,0-1.66,1.67,1.68,1.68,0,0,0,1.66,1.66" />
            <line class="cls-2" x1="44.76" y1="66.66" x2="70.06" y2="83.78" />
            <line class="cls-2" x1="115.28" y1="67.69" x2="89.98" y2="83.78" />
            <line class="cls-2" x1="152.89" y1="83.78" x2="127.59" y2="67.69" />
            <rect class="cls-3" x="153.15" y="121.74" width="39.5" height="16" />
            <rect x="155.78" y="123.15" width="1.36" height="11.24" />
            <rect x="158.43" y="123.15" width="2.72" height="11.24" />
            <rect x="162.43" y="123.15" width="0.72" height="11.24" />
            <rect x="163.6" y="123.15" width="1.36" height="11.24" />
            <rect x="165.6" y="123.15" width="1.36" height="11.24" />
            <rect x="167.87" y="123.15" width="1" height="11.24" />
            <rect x="169.92" y="123.1" width="2.22" height="11.24" />
            <rect x="173.44" y="123.15" width="0.72" height="11.24" />
            <rect x="175.63" y="123.15" width="1.36" height="11.24" />
            <rect x="177.81" y="123.15" width="1" height="11.24" />
            <rect x="179.95" y="123.15" width="2.72" height="11.24" />
            <rect x="183.9" y="123.15" width="1.36" height="11.24" />
            <rect x="185.9" y="123.15" width="1.36" height="11.24" />
            <rect x="188.17" y="123.15" width="1" height="11.24" />
            <text class="cls-4" transform="translate(155.4 137.04)">2213132219056125486759061312</text>
            <text class="cls-5" transform="translate(170.57 118.85)">净含量：20.21g</text>
            <circle class="cls-6" cx="19.15" cy="128.74" r="8" />
            <g id="图层_2-2" data-name="图层 2">
                <g id="图层_1-2-2" data-name="图层 1-2">
                    <g class="cls-7">
                        <path class="cls-8" d="M24,130.23l-4.55,2.21a.22.22,0,0,1-.16,0l-3.93-2a.2.2,0,0,1-.11-.17v-3.65a.19.19,0,0,1,.1-.17l3.93-1.94a.17.17,0,0,1,.17,0l3.94,1.92a.08.08,0,0,1,0,.11.08.08,0,0,1,0,0l-3.94,1.9a.17.17,0,0,1-.17,0L16,126.89a.1.1,0,0,0-.12,0s0,0,0,0v.53a.11.11,0,0,0,.05.09l3.39,1.68a.25.25,0,0,0,.17,0l4.6-2.33a.11.11,0,0,0,.05-.09v-.71a.1.1,0,0,0-.05-.08l-4.6-2.3a.17.17,0,0,0-.17,0l-4.53,2.28a.18.18,0,0,0-.11.17v4.44a.2.2,0,0,0,.11.17l4.53,2.34a.25.25,0,0,0,.17,0l4.62-2.27a.08.08,0,0,0,0-.08v-.51a.1.1,0,0,0-.1-.08Z" />
                    </g>
                </g>
            </g>
            <text class="cls-9" transform="translate(29.86 127.39)">
                I
                <tspan class="cls-10" x="1.08" y="0">T</tspan>
                <tspan x="2.8" y="0">AEM实验室</tspan>
            </text>
            <text class="cls-11" transform="translate(29.86 132.29)">
                x
                <tspan class="cls-12" x="1.57" y="0">qcl is fucking </tspan>
                <tspan class="cls-13" x="22.31" y="0">r</tspan>
                <tspan class="cls-14" x="23.49" y="0">eta</tspan>
                <tspan class="cls-13" x="28.18" y="0">r</tspan>
                <tspan class="cls-14" x="29.36" y="0">d</tspan>
            </text>
        </g>
    </g>
</svg>