<svg xmlns="http://www.w3.org/2000/svg" viewBox="0 0 65 127.02"><defs><style>.cls-1{fill:#fff;}.cls-2,.cls-4,.cls-6{fill:#00d830;}.cls-3{fill:#262626;}.cls-4,.cls-5{font-size:7px;}.cls-4,.cls-5,.cls-6,.cls-7{font-family:MicrosoftYaHei-Bold, Microsoft YaHei;font-weight:700;}.cls-5,.cls-7{fill:#1a1a1a;}.cls-6,.cls-7{font-size:5px;}</style></defs><g id="图层_2" data-name="图层 2"><g id="图层_1-2" data-name="图层 1"><path class="cls-1" d="M0,127l34-22.34L65,127V0H0Z"/><path class="cls-2" d="M21.47,21.16h3.11V18.25H21.47Zm1.32-1.76L23,19l.19.38.42.06-.3.3.07.42L23,20l-.37.2.07-.42-.3-.3Z"/><rect class="cls-2" x="21.86" y="17.28" width="2.33" height="0.58"/><path class="cls-2" d="M23.22,11.54v3.09l.38.22v.67l-.58.33-.57-.33v-.67l.38-.22V11.54a.11.11,0,0,0-.22,0L21,15.23,22,16.93h2l1-1.7-1.62-3.74A.11.11,0,0,0,23.22,11.54Z"/><rect class="cls-2" x="21.47" y="21.65" width="3.11" height="45.9"/><rect class="cls-2" x="21.47" y="68.03" width="3.11" height="1.22"/><rect class="cls-2" x="29.52" y="11.54" width="16.25" height="3.84"/><rect class="cls-2" x="29.52" y="65.54" width="16.25" height="3.84"/><rect class="cls-2" x="29.52" y="16.84" width="3.86" height="47.38"/><rect class="cls-2" x="40.54" y="18.67" width="4.68" height="1.64"/><rect class="cls-2" x="37.51" y="23.33" width="7.71" height="1.64"/><rect class="cls-2" x="40.54" y="27.99" width="4.68" height="1.64"/><rect class="cls-2" x="37.51" y="32.65" width="7.71" height="1.64"/><rect class="cls-2" x="40.54" y="37.31" width="4.68" height="1.64"/><rect class="cls-2" x="37.51" y="41.97" width="7.71" height="1.64"/><rect class="cls-2" x="40.54" y="46.63" width="4.68" height="1.64"/><rect class="cls-2" x="37.51" y="51.29" width="7.71" height="1.64"/><rect class="cls-2" x="40.54" y="55.95" width="4.68" height="1.64"/><rect class="cls-2" x="37.51" y="61.16" width="7.71" height="1.64"/><path class="cls-3" d="M22.2,20.66h3.11V17.75H22.2Zm1.32-1.76.18-.38.19.38.42.06-.3.3.07.42-.38-.2-.37.2.07-.42-.3-.3Z"/><rect class="cls-3" x="22.59" y="16.78" width="2.33" height="0.58"/><path class="cls-3" d="M24,11v3.09l.38.22V15l-.58.33L23.18,15v-.67l.38-.22V11a.11.11,0,0,0-.22,0l-1.62,3.74,1.05,1.7h2l1.05-1.7L24.17,11A.11.11,0,0,0,24,11Z"/><rect class="cls-3" x="22.2" y="21.15" width="3.11" height="45.9"/><rect class="cls-3" x="22.2" y="67.53" width="3.11" height="1.22"/><rect class="cls-3" x="30.25" y="11.04" width="16.25" height="3.84"/><rect class="cls-3" x="30.25" y="65.04" width="16.25" height="3.84"/><rect class="cls-3" x="30.25" y="16.34" width="3.86" height="47.38"/><rect class="cls-3" x="41.27" y="18.17" width="4.68" height="1.64"/><rect class="cls-3" x="38.24" y="22.83" width="7.71" height="1.64"/><rect class="cls-3" x="41.27" y="27.49" width="4.68" height="1.64"/><rect class="cls-3" x="38.24" y="32.15" width="7.71" height="1.64"/><rect class="cls-3" x="41.27" y="36.81" width="4.68" height="1.64"/><rect class="cls-3" x="38.24" y="41.47" width="7.71" height="1.64"/><rect class="cls-3" x="41.27" y="46.13" width="4.68" height="1.64"/><rect class="cls-3" x="38.24" y="50.79" width="7.71" height="1.64"/><rect class="cls-3" x="41.27" y="55.45" width="4.68" height="1.64"/><rect class="cls-3" x="38.24" y="60.65" width="7.71" height="1.64"/><text class="cls-4" transform="translate(22.74 80.53)">UI设计</text><text class="cls-5" transform="translate(23.21 80.5)">UI设计</text><text class="cls-6" transform="translate(21.33 89.11)">UI Design</text><text class="cls-7" transform="translate(21.8 89.08)">UI Design</text></g></g></svg>