<svg xmlns="http://www.w3.org/2000/svg" xmlns:xlink="http://www.w3.org/1999/xlink" viewBox="0 0 168.48 175.85"><defs><style>.cls-1,.cls-10,.cls-100,.cls-101,.cls-102,.cls-103,.cls-104,.cls-105,.cls-106,.cls-107,.cls-108,.cls-109,.cls-11,.cls-110,.cls-111,.cls-112,.cls-113,.cls-114,.cls-115,.cls-116,.cls-117,.cls-118,.cls-119,.cls-12,.cls-120,.cls-121,.cls-122,.cls-123,.cls-124,.cls-125,.cls-126,.cls-127,.cls-128,.cls-129,.cls-13,.cls-130,.cls-131,.cls-132,.cls-133,.cls-134,.cls-135,.cls-136,.cls-137,.cls-138,.cls-139,.cls-14,.cls-140,.cls-141,.cls-142,.cls-143,.cls-144,.cls-145,.cls-146,.cls-147,.cls-148,.cls-149,.cls-15,.cls-150,.cls-151,.cls-152,.cls-153,.cls-154,.cls-155,.cls-156,.cls-157,.cls-158,.cls-159,.cls-16,.cls-160,.cls-161,.cls-162,.cls-163,.cls-164,.cls-165,.cls-166,.cls-167,.cls-168,.cls-17,.cls-18,.cls-19,.cls-2,.cls-20,.cls-21,.cls-22,.cls-23,.cls-24,.cls-25,.cls-26,.cls-27,.cls-28,.cls-29,.cls-3,.cls-30,.cls-31,.cls-32,.cls-33,.cls-34,.cls-35,.cls-36,.cls-37,.cls-38,.cls-39,.cls-4,.cls-40,.cls-41,.cls-42,.cls-43,.cls-44,.cls-45,.cls-46,.cls-47,.cls-48,.cls-49,.cls-5,.cls-50,.cls-51,.cls-52,.cls-53,.cls-54,.cls-55,.cls-56,.cls-57,.cls-58,.cls-59,.cls-6,.cls-60,.cls-61,.cls-62,.cls-63,.cls-64,.cls-65,.cls-66,.cls-67,.cls-68,.cls-69,.cls-7,.cls-70,.cls-71,.cls-72,.cls-73,.cls-74,.cls-75,.cls-76,.cls-77,.cls-78,.cls-79,.cls-8,.cls-80,.cls-81,.cls-82,.cls-83,.cls-84,.cls-85,.cls-86,.cls-87,.cls-88,.cls-89,.cls-9,.cls-90,.cls-91,.cls-92,.cls-93,.cls-94,.cls-95,.cls-96,.cls-97,.cls-98,.cls-99{stroke:#000;stroke-miterlimit:10;stroke-width:0.75px;}.cls-1{fill:url(#未命名的渐变_11);}.cls-2{fill:url(#未命名的渐变);}.cls-3{fill:url(#未命名的渐变-2);}.cls-4{fill:url(#未命名的渐变-3);}.cls-5{fill:url(#未命名的渐变-4);}.cls-6{fill:url(#未命名的渐变-5);}.cls-7{fill:url(#未命名的渐变-6);}.cls-8{fill:url(#未命名的渐变-7);}.cls-9{fill:url(#未命名的渐变-8);}.cls-10{fill:url(#未命名的渐变-9);}.cls-11{fill:url(#未命名的渐变-10);}.cls-12{fill:url(#未命名的渐变-11);}.cls-13{fill:url(#未命名的渐变-12);}.cls-14{fill:url(#未命名的渐变-13);}.cls-15{fill:url(#未命名的渐变-14);}.cls-16{fill:url(#未命名的渐变-15);}.cls-17{fill:url(#未命名的渐变-16);}.cls-18{fill:url(#未命名的渐变-17);}.cls-19{fill:url(#未命名的渐变-18);}.cls-20{fill:url(#未命名的渐变-19);}.cls-21{fill:url(#未命名的渐变-20);}.cls-22{fill:url(#未命名的渐变-21);}.cls-23{fill:url(#未命名的渐变-22);}.cls-24{fill:url(#未命名的渐变-23);}.cls-25{fill:url(#未命名的渐变-24);}.cls-26{fill:url(#未命名的渐变-25);}.cls-27{fill:url(#未命名的渐变-26);}.cls-28{fill:url(#未命名的渐变-27);}.cls-29{fill:url(#未命名的渐变-28);}.cls-30{fill:url(#未命名的渐变-29);}.cls-31{fill:url(#未命名的渐变-30);}.cls-32{fill:url(#未命名的渐变-31);}.cls-33{fill:url(#未命名的渐变-32);}.cls-34{fill:url(#未命名的渐变-33);}.cls-35{fill:url(#未命名的渐变-34);}.cls-36{fill:url(#未命名的渐变-35);}.cls-37{fill:url(#未命名的渐变-36);}.cls-38{fill:url(#未命名的渐变-37);}.cls-39{fill:url(#未命名的渐变-38);}.cls-40{fill:url(#未命名的渐变-39);}.cls-41{fill:url(#未命名的渐变-40);}.cls-42{fill:url(#未命名的渐变-41);}.cls-43{fill:url(#未命名的渐变-42);}.cls-44{fill:url(#未命名的渐变-43);}.cls-45{fill:url(#未命名的渐变-44);}.cls-46{fill:url(#未命名的渐变-45);}.cls-47{fill:url(#未命名的渐变-46);}.cls-48{fill:url(#未命名的渐变-47);}.cls-49{fill:url(#未命名的渐变-48);}.cls-50{fill:url(#未命名的渐变-49);}.cls-51{fill:url(#未命名的渐变-50);}.cls-52{fill:url(#未命名的渐变-51);}.cls-53{fill:url(#未命名的渐变-52);}.cls-54{fill:url(#未命名的渐变-53);}.cls-55{fill:url(#未命名的渐变-54);}.cls-56{fill:url(#未命名的渐变-55);}.cls-57{fill:url(#未命名的渐变-56);}.cls-58{fill:url(#未命名的渐变-57);}.cls-59{fill:url(#未命名的渐变-58);}.cls-60{fill:url(#未命名的渐变-59);}.cls-61{fill:url(#未命名的渐变-60);}.cls-62{fill:url(#未命名的渐变-61);}.cls-63{fill:url(#未命名的渐变-62);}.cls-64{fill:url(#未命名的渐变-63);}.cls-65{fill:url(#未命名的渐变-64);}.cls-66{fill:url(#未命名的渐变-65);}.cls-67{fill:url(#未命名的渐变-66);}.cls-68{fill:url(#未命名的渐变-67);}.cls-69{fill:url(#未命名的渐变-68);}.cls-70{fill:url(#未命名的渐变-69);}.cls-71{fill:url(#未命名的渐变-70);}.cls-72{fill:url(#未命名的渐变-71);}.cls-73{fill:url(#未命名的渐变-72);}.cls-74{fill:url(#未命名的渐变-73);}.cls-75{fill:url(#未命名的渐变-74);}.cls-76{fill:url(#未命名的渐变-75);}.cls-77{fill:url(#未命名的渐变-76);}.cls-78{fill:url(#未命名的渐变-77);}.cls-79{fill:url(#未命名的渐变-78);}.cls-80{fill:url(#未命名的渐变-79);}.cls-81{fill:url(#未命名的渐变-80);}.cls-82{fill:url(#未命名的渐变-81);}.cls-83{fill:url(#未命名的渐变-82);}.cls-84{fill:url(#未命名的渐变-83);}.cls-85{fill:url(#未命名的渐变-84);}.cls-86{fill:url(#未命名的渐变-85);}.cls-87{fill:url(#未命名的渐变-86);}.cls-88{fill:url(#未命名的渐变-87);}.cls-89{fill:url(#未命名的渐变-88);}.cls-90{fill:url(#未命名的渐变-89);}.cls-91{fill:url(#未命名的渐变-90);}.cls-92{fill:url(#未命名的渐变-91);}.cls-93{fill:url(#未命名的渐变-92);}.cls-94{fill:url(#未命名的渐变-93);}.cls-95{fill:url(#未命名的渐变-94);}.cls-96{fill:url(#未命名的渐变-95);}.cls-97{fill:url(#未命名的渐变-96);}.cls-98{fill:url(#未命名的渐变-97);}.cls-99{fill:url(#未命名的渐变-98);}.cls-100{fill:url(#未命名的渐变-99);}.cls-101{fill:url(#未命名的渐变-100);}.cls-102{fill:url(#未命名的渐变-101);}.cls-103{fill:url(#未命名的渐变-102);}.cls-104{fill:url(#未命名的渐变-103);}.cls-105{fill:url(#未命名的渐变-104);}.cls-106{fill:url(#未命名的渐变-105);}.cls-107{fill:url(#未命名的渐变-106);}.cls-108{fill:url(#未命名的渐变-107);}.cls-109{fill:url(#未命名的渐变-108);}.cls-110{fill:url(#未命名的渐变-109);}.cls-111{fill:url(#未命名的渐变-110);}.cls-112{fill:url(#未命名的渐变-111);}.cls-113{fill:url(#未命名的渐变-112);}.cls-114{fill:url(#未命名的渐变-113);}.cls-115{fill:url(#未命名的渐变-114);}.cls-116{fill:url(#未命名的渐变-115);}.cls-117{fill:url(#未命名的渐变-116);}.cls-118{fill:url(#未命名的渐变-117);}.cls-119{fill:url(#未命名的渐变-118);}.cls-120{fill:url(#未命名的渐变-119);}.cls-121{fill:url(#未命名的渐变-120);}.cls-122{fill:url(#未命名的渐变-121);}.cls-123{fill:url(#未命名的渐变-122);}.cls-124{fill:url(#未命名的渐变-123);}.cls-125{fill:url(#未命名的渐变-124);}.cls-126{fill:url(#未命名的渐变-125);}.cls-127{fill:url(#未命名的渐变-126);}.cls-128{fill:url(#未命名的渐变-127);}.cls-129{fill:url(#未命名的渐变-128);}.cls-130{fill:url(#未命名的渐变-129);}.cls-131{fill:url(#未命名的渐变-130);}.cls-132{fill:url(#未命名的渐变-131);}.cls-133{fill:url(#未命名的渐变-132);}.cls-134{fill:url(#未命名的渐变-133);}.cls-135{fill:url(#未命名的渐变-134);}.cls-136{fill:url(#未命名的渐变-135);}.cls-137{fill:url(#未命名的渐变-136);}.cls-138{fill:url(#未命名的渐变-137);}.cls-139{fill:url(#未命名的渐变-138);}.cls-140{fill:url(#未命名的渐变-139);}.cls-141{fill:url(#未命名的渐变-140);}.cls-142{fill:url(#未命名的渐变-141);}.cls-143{fill:url(#未命名的渐变-142);}.cls-144{fill:url(#未命名的渐变-143);}.cls-145{fill:url(#未命名的渐变-144);}.cls-146{fill:url(#未命名的渐变-145);}.cls-147{fill:url(#未命名的渐变-146);}.cls-148{fill:url(#未命名的渐变-147);}.cls-149{fill:url(#未命名的渐变-148);}.cls-150{fill:url(#未命名的渐变-149);}.cls-151{fill:url(#未命名的渐变-150);}.cls-152{fill:url(#未命名的渐变-151);}.cls-153{fill:url(#未命名的渐变-152);}.cls-154{fill:url(#未命名的渐变-153);}.cls-155{fill:url(#未命名的渐变-154);}.cls-156{fill:url(#未命名的渐变-155);}.cls-157{fill:url(#未命名的渐变-156);}.cls-158{fill:url(#未命名的渐变-157);}.cls-159{fill:url(#未命名的渐变-158);}.cls-160{fill:url(#未命名的渐变-159);}.cls-161{fill:url(#未命名的渐变-160);}.cls-162{fill:url(#未命名的渐变-161);}.cls-163{fill:url(#未命名的渐变-162);}.cls-164{fill:url(#未命名的渐变-163);}.cls-165{fill:url(#未命名的渐变-164);}.cls-166{fill:url(#未命名的渐变-165);}.cls-167{fill:url(#未命名的渐变-166);}.cls-168{fill:url(#未命名的渐变-167);}</style><linearGradient id="未命名的渐变_11" x1="-97.87" y1="-50.77" x2="142.97" y2="76" gradientUnits="userSpaceOnUse"><stop offset="0" stop-color="#bfbfbf"/><stop offset="1"/></linearGradient><linearGradient id="未命名的渐变" x1="-101.04" y1="-44.75" x2="139.8" y2="82.02" gradientUnits="userSpaceOnUse"><stop offset="0" stop-color="#fff"/><stop offset="1"/></linearGradient><linearGradient id="未命名的渐变-2" x1="-104.08" y1="-38.96" x2="136.76" y2="87.81" xlink:href="#未命名的渐变"/><linearGradient id="未命名的渐变-3" x1="-107.35" y1="-32.76" x2="133.49" y2="94.01" xlink:href="#未命名的渐变"/><linearGradient id="未命名的渐变-4" x1="-110.52" y1="-26.74" x2="130.32" y2="100.03" xlink:href="#未命名的渐变"/><linearGradient id="未命名的渐变-5" x1="-113.56" y1="-20.96" x2="127.28" y2="105.81" xlink:href="#未命名的渐变"/><linearGradient id="未命名的渐变-6" x1="-98.15" y1="-50.24" x2="142.69" y2="76.53" xlink:href="#未命名的渐变"/><linearGradient id="未命名的渐变-7" x1="-101.32" y1="-44.22" x2="139.52" y2="82.55" xlink:href="#未命名的渐变"/><linearGradient id="未命名的渐变-8" x1="-104.36" y1="-38.43" x2="136.48" y2="88.34" xlink:href="#未命名的渐变"/><linearGradient id="未命名的渐变-9" x1="-88.96" y1="-67.69" x2="151.88" y2="59.08" xlink:href="#未命名的渐变"/><linearGradient id="未命名的渐变-10" x1="-92.13" y1="-61.67" x2="148.71" y2="65.1" xlink:href="#未命名的渐变"/><linearGradient id="未命名的渐变-11" x1="-95.18" y1="-55.88" x2="145.66" y2="70.89" xlink:href="#未命名的渐变"/><linearGradient id="未命名的渐变-12" x1="-98.44" y1="-49.68" x2="142.4" y2="77.09" xlink:href="#未命名的渐变"/><linearGradient id="未命名的渐变-13" x1="-101.61" y1="-43.66" x2="139.23" y2="83.11" xlink:href="#未命名的渐变"/><linearGradient id="未命名的渐变-14" x1="-104.66" y1="-37.87" x2="136.18" y2="88.9" xlink:href="#未命名的渐变"/><linearGradient id="未命名的渐变-15" x1="-89.24" y1="-67.16" x2="151.6" y2="59.61" xlink:href="#未命名的渐变"/><linearGradient id="未命名的渐变-16" x1="-92.41" y1="-61.14" x2="148.43" y2="65.63" xlink:href="#未命名的渐变"/><linearGradient id="未命名的渐变-17" x1="-95.46" y1="-55.35" x2="145.38" y2="71.42" xlink:href="#未命名的渐变"/><linearGradient id="未命名的渐变-18" x1="-107.71" y1="-32.08" x2="133.14" y2="94.69" xlink:href="#未命名的渐变"/><linearGradient id="未命名的渐变-19" x1="-110.87" y1="-26.06" x2="129.97" y2="100.71" xlink:href="#未命名的渐变"/><linearGradient id="未命名的渐变-20" x1="-113.92" y1="-20.28" x2="126.92" y2="106.49" xlink:href="#未命名的渐变"/><linearGradient id="未命名的渐变-21" x1="-117.18" y1="-14.08" x2="123.66" y2="112.69" xlink:href="#未命名的渐变"/><linearGradient id="未命名的渐变-22" x1="-120.35" y1="-8.06" x2="120.49" y2="118.71" xlink:href="#未命名的渐变"/><linearGradient id="未命名的渐变-23" x1="-123.4" y1="-2.27" x2="117.44" y2="124.5" xlink:href="#未命名的渐变"/><linearGradient id="未命名的渐变-24" x1="-107.98" y1="-31.55" x2="132.86" y2="95.22" xlink:href="#未命名的渐变"/><linearGradient id="未命名的渐变-25" x1="-111.15" y1="-25.53" x2="129.69" y2="101.24" xlink:href="#未命名的渐变"/><linearGradient id="未命名的渐变-26" x1="-114.2" y1="-19.74" x2="126.64" y2="107.02" xlink:href="#未命名的渐变"/><linearGradient id="未命名的渐变-27" x1="-116.9" y1="-14.62" x2="123.94" y2="112.15" xlink:href="#未命名的渐变"/><linearGradient id="未命名的渐变-28" x1="-120.07" y1="-8.59" x2="120.77" y2="118.17" xlink:href="#未命名的渐变"/><linearGradient id="未命名的渐变-29" x1="-123.11" y1="-2.81" x2="117.73" y2="123.96" xlink:href="#未命名的渐变"/><linearGradient id="未命名的渐变-30" x1="-126.39" y1="3.42" x2="114.45" y2="130.19" xlink:href="#未命名的渐变"/><linearGradient id="未命名的渐变-31" x1="-129.56" y1="9.44" x2="111.28" y2="136.21" xlink:href="#未命名的渐变"/><linearGradient id="未命名的渐变-32" x1="-132.61" y1="15.23" x2="108.23" y2="142" xlink:href="#未命名的渐变"/><linearGradient id="未命名的渐变-33" x1="-135.89" y1="21.47" x2="104.95" y2="148.23" xlink:href="#未命名的渐变"/><linearGradient id="未命名的渐变-34" x1="-139.06" y1="27.49" x2="101.78" y2="154.25" xlink:href="#未命名的渐变"/><linearGradient id="未命名的渐变-35" x1="-142.11" y1="33.27" x2="98.73" y2="160.04" xlink:href="#未命名的渐变"/><linearGradient id="未命名的渐变-36" x1="-145.37" y1="39.47" x2="95.47" y2="166.24" xlink:href="#未命名的渐变"/><linearGradient id="未命名的渐变-37" x1="-148.54" y1="45.49" x2="92.3" y2="172.26" xlink:href="#未命名的渐变"/><linearGradient id="未命名的渐变-38" x1="-151.58" y1="51.28" x2="89.26" y2="178.05" xlink:href="#未命名的渐变"/><linearGradient id="未命名的渐变-39" x1="-154.92" y1="57.62" x2="85.92" y2="184.39" xlink:href="#未命名的渐变"/><linearGradient id="未命名的渐变-40" x1="-158.09" y1="63.64" x2="82.75" y2="190.41" xlink:href="#未命名的渐变"/><linearGradient id="未命名的渐变-41" x1="-161.14" y1="69.43" x2="79.7" y2="196.2" xlink:href="#未命名的渐变"/><linearGradient id="未命名的渐变-42" x1="-80.03" y1="-84.66" x2="160.81" y2="42.11" xlink:href="#未命名的渐变"/><linearGradient id="未命名的渐变-43" x1="-83.2" y1="-78.64" x2="157.64" y2="48.13" xlink:href="#未命名的渐变"/><linearGradient id="未命名的渐变-44" x1="-86.25" y1="-72.85" x2="154.59" y2="53.92" xlink:href="#未命名的渐变"/><linearGradient id="未命名的渐变-45" x1="-89.51" y1="-66.65" x2="151.33" y2="60.12" xlink:href="#未命名的渐变"/><linearGradient id="未命名的渐变-46" x1="-92.68" y1="-60.63" x2="148.16" y2="66.14" xlink:href="#未命名的渐变"/><linearGradient id="未命名的渐变-47" x1="-95.73" y1="-54.84" x2="145.12" y2="71.93" xlink:href="#未命名的渐变"/><linearGradient id="未命名的渐变-48" x1="-80.31" y1="-84.13" x2="160.53" y2="42.64" xlink:href="#未命名的渐变"/><linearGradient id="未命名的渐变-49" x1="-83.48" y1="-78.1" x2="157.36" y2="48.66" xlink:href="#未命名的渐变"/><linearGradient id="未命名的渐变-50" x1="-86.53" y1="-72.32" x2="154.31" y2="54.45" xlink:href="#未命名的渐变"/><linearGradient id="未命名的渐变-51" x1="-71.1" y1="-101.62" x2="169.74" y2="25.15" xlink:href="#未命名的渐变"/><linearGradient id="未命名的渐变-52" x1="-74.27" y1="-95.6" x2="166.57" y2="31.17" xlink:href="#未命名的渐变"/><linearGradient id="未命名的渐变-53" x1="-77.32" y1="-89.81" x2="163.52" y2="36.96" xlink:href="#未命名的渐变"/><linearGradient id="未命名的渐变-54" x1="-80.58" y1="-83.61" x2="160.26" y2="43.16" xlink:href="#未命名的渐变"/><linearGradient id="未命名的渐变-55" x1="-83.75" y1="-77.59" x2="157.09" y2="49.18" xlink:href="#未命名的渐变"/><linearGradient id="未命名的渐变-56" x1="-86.8" y1="-71.81" x2="154.04" y2="54.96" xlink:href="#未命名的渐变"/><linearGradient id="未命名的渐变-57" x1="-71.38" y1="-101.09" x2="169.46" y2="25.68" xlink:href="#未命名的渐变"/><linearGradient id="未命名的渐变-58" x1="-74.55" y1="-95.07" x2="166.29" y2="31.7" xlink:href="#未命名的渐变"/><linearGradient id="未命名的渐变-59" x1="-77.6" y1="-89.28" x2="163.24" y2="37.49" xlink:href="#未命名的渐变"/><linearGradient id="未命名的渐变-60" x1="-80.86" y1="-83.09" x2="159.98" y2="43.68" xlink:href="#未命名的渐变"/><linearGradient id="未命名的渐变-61" x1="-84.02" y1="-77.07" x2="156.82" y2="49.7" xlink:href="#未命名的渐变"/><linearGradient id="未命名的渐变-62" x1="-87.07" y1="-71.28" x2="153.77" y2="55.48" xlink:href="#未命名的渐变"/><linearGradient id="未命名的渐变-63" x1="-90.41" y1="-64.94" x2="150.43" y2="61.82" xlink:href="#未命名的渐变"/><linearGradient id="未命名的渐变-64" x1="-93.58" y1="-58.92" x2="147.26" y2="67.84" xlink:href="#未命名的渐变"/><linearGradient id="未命名的渐变-65" x1="-96.62" y1="-53.14" x2="144.22" y2="73.63" xlink:href="#未命名的渐变"/><linearGradient id="未命名的渐变-66" x1="-99.9" y1="-46.91" x2="140.94" y2="79.86" xlink:href="#未命名的渐变"/><linearGradient id="未命名的渐变-67" x1="-103.07" y1="-40.89" x2="137.77" y2="85.88" xlink:href="#未命名的渐变"/><linearGradient id="未命名的渐变-68" x1="-106.12" y1="-35.1" x2="134.72" y2="91.67" xlink:href="#未命名的渐变"/><linearGradient id="未命名的渐变-69" x1="-109.4" y1="-28.86" x2="131.44" y2="97.91" xlink:href="#未命名的渐变"/><linearGradient id="未命名的渐变-70" x1="-112.57" y1="-22.84" x2="128.27" y2="103.93" xlink:href="#未命名的渐变"/><linearGradient id="未命名的渐变-71" x1="-115.61" y1="-17.06" x2="125.23" y2="109.71" xlink:href="#未命名的渐变"/><linearGradient id="未命名的渐变-72" x1="-118.88" y1="-10.86" x2="121.96" y2="115.91" xlink:href="#未命名的渐变"/><linearGradient id="未命名的渐变-73" x1="-122.05" y1="-4.84" x2="118.79" y2="121.93" xlink:href="#未命名的渐变"/><linearGradient id="未命名的渐变-74" x1="-125.09" y1="0.95" x2="115.75" y2="127.72" xlink:href="#未命名的渐变"/><linearGradient id="未命名的渐变-75" x1="-128.43" y1="7.29" x2="112.41" y2="134.06" xlink:href="#未命名的渐变"/><linearGradient id="未命名的渐变-76" x1="-131.6" y1="13.31" x2="109.24" y2="140.08" xlink:href="#未命名的渐变"/><linearGradient id="未命名的渐变-77" x1="-134.65" y1="19.1" x2="106.2" y2="145.87" xlink:href="#未命名的渐变"/><linearGradient id="未命名的渐变-78" x1="-126.72" y1="4.05" x2="114.12" y2="130.82" xlink:href="#未命名的渐变"/><linearGradient id="未命名的渐变-79" x1="-129.89" y1="10.07" x2="110.95" y2="136.84" xlink:href="#未命名的渐变"/><linearGradient id="未命名的渐变-80" x1="-132.94" y1="15.86" x2="107.9" y2="142.62" xlink:href="#未命名的渐变"/><linearGradient id="未命名的渐变-81" x1="-136.2" y1="22.06" x2="104.64" y2="148.82" xlink:href="#未命名的渐变"/><linearGradient id="未命名的渐变-82" x1="-139.37" y1="28.08" x2="101.47" y2="154.84" xlink:href="#未命名的渐变"/><linearGradient id="未命名的渐变-83" x1="-142.42" y1="33.86" x2="98.42" y2="160.63" xlink:href="#未命名的渐变"/><linearGradient id="未命名的渐变-84" x1="-117.35" y1="-13.76" x2="123.49" y2="113.01" xlink:href="#未命名的渐变"/><linearGradient id="未命名的渐变-85" x1="-120.52" y1="-7.74" x2="120.32" y2="119.03" xlink:href="#未命名的渐变"/><linearGradient id="未命名的渐变-86" x1="-123.57" y1="-1.95" x2="117.27" y2="124.82" xlink:href="#未命名的渐变"/><linearGradient id="未命名的渐变-87" x1="-126.83" y1="4.25" x2="114.01" y2="131.02" xlink:href="#未命名的渐变"/><linearGradient id="未命名的渐变-88" x1="-130" y1="10.27" x2="110.84" y2="137.04" xlink:href="#未命名的渐变"/><linearGradient id="未命名的渐变-89" x1="-133.04" y1="16.06" x2="107.8" y2="142.83" xlink:href="#未命名的渐变"/><linearGradient id="未命名的渐变-90" x1="-98.73" y1="-49.13" x2="142.11" y2="77.64" xlink:href="#未命名的渐变"/><linearGradient id="未命名的渐变-91" x1="-101.9" y1="-43.11" x2="138.94" y2="83.66" xlink:href="#未命名的渐变"/><linearGradient id="未命名的渐变-92" x1="-104.95" y1="-37.33" x2="135.89" y2="89.44" xlink:href="#未命名的渐变"/><linearGradient id="未命名的渐变-93" x1="-108.21" y1="-31.13" x2="132.63" y2="95.64" xlink:href="#未命名的渐变"/><linearGradient id="未命名的渐变-94" x1="-111.38" y1="-25.11" x2="129.46" y2="101.66" xlink:href="#未命名的渐变"/><linearGradient id="未命名的渐变-95" x1="-114.42" y1="-19.32" x2="126.42" y2="107.45" xlink:href="#未命名的渐变"/><linearGradient id="未命名的渐变-96" x1="-89.95" y1="-65.81" x2="150.89" y2="60.96" xlink:href="#未命名的渐变"/><linearGradient id="未命名的渐变-97" x1="-93.12" y1="-59.79" x2="147.72" y2="66.98" xlink:href="#未命名的渐变"/><linearGradient id="未命名的渐变-98" x1="-96.17" y1="-54" x2="144.67" y2="72.77" xlink:href="#未命名的渐变"/><linearGradient id="未命名的渐变-99" x1="-99.45" y1="-47.76" x2="141.39" y2="79.01" xlink:href="#未命名的渐变"/><linearGradient id="未命名的渐变-100" x1="-102.62" y1="-41.74" x2="138.22" y2="85.03" xlink:href="#未命名的渐变"/><linearGradient id="未命名的渐变-101" x1="-105.41" y1="-36.44" x2="135.43" y2="90.33" xlink:href="#未命名的渐变"/><linearGradient id="未命名的渐变-102" x1="-108.93" y1="-29.75" x2="131.91" y2="97.02" xlink:href="#未命名的渐变"/><linearGradient id="未命名的渐变-103" x1="-112.1" y1="-23.73" x2="128.74" y2="103.04" xlink:href="#未命名的渐变"/><linearGradient id="未命名的渐变-104" x1="-115.15" y1="-17.95" x2="125.69" y2="108.82" xlink:href="#未命名的渐变"/><linearGradient id="未命名的渐变-105" x1="-118.48" y1="-11.61" x2="122.36" y2="115.16" xlink:href="#未命名的渐变"/><linearGradient id="未命名的渐变-106" x1="-121.65" y1="-5.59" x2="119.19" y2="121.18" xlink:href="#未命名的渐变"/><linearGradient id="未命名的渐变-107" x1="-124.7" y1="0.2" x2="116.14" y2="126.97" xlink:href="#未命名的渐变"/><linearGradient id="未命名的渐变-108" x1="-99.12" y1="-48.4" x2="141.73" y2="78.37" xlink:href="#未命名的渐变"/><linearGradient id="未命名的渐变-109" x1="-102.2" y1="-42.54" x2="138.64" y2="84.23" xlink:href="#未命名的渐变"/><linearGradient id="未命名的渐变-110" x1="-105.33" y1="-36.59" x2="135.51" y2="90.17" xlink:href="#未命名的渐变"/><linearGradient id="未命名的渐变-111" x1="-108.42" y1="-30.72" x2="132.42" y2="96.05" xlink:href="#未命名的渐变"/><linearGradient id="未命名的渐变-112" x1="-111.68" y1="-24.54" x2="129.16" y2="102.23" xlink:href="#未命名的渐变"/><linearGradient id="未命名的渐变-113" x1="-114.72" y1="-18.75" x2="126.12" y2="108.02" xlink:href="#未命名的渐变"/><linearGradient id="未命名的渐变-114" x1="-117.89" y1="-12.73" x2="122.95" y2="114.04" xlink:href="#未命名的渐变"/><linearGradient id="未命名的渐变-115" x1="-121.06" y1="-6.71" x2="119.78" y2="120.06" xlink:href="#未命名的渐变"/><linearGradient id="未命名的渐变-116" x1="-124.11" y1="-0.92" x2="116.73" y2="125.85" xlink:href="#未命名的渐变"/><linearGradient id="未命名的渐变-117" x1="-90.07" y1="-65.59" x2="150.77" y2="61.18" xlink:href="#未命名的渐变"/><linearGradient id="未命名的渐变-118" x1="-93.24" y1="-59.57" x2="147.6" y2="67.2" xlink:href="#未命名的渐变"/><linearGradient id="未命名的渐变-119" x1="-96.2" y1="-53.95" x2="144.64" y2="72.82" xlink:href="#未命名的渐变"/><linearGradient id="未命名的渐变-120" x1="-99.54" y1="-47.59" x2="141.3" y2="79.18" xlink:href="#未命名的渐变"/><linearGradient id="未命名的渐变-121" x1="-102.71" y1="-41.57" x2="138.13" y2="85.2" xlink:href="#未命名的渐变"/><linearGradient id="未命名的渐变-122" x1="-105.76" y1="-35.78" x2="135.08" y2="90.99" xlink:href="#未命名的渐变"/><linearGradient id="未命名的渐变-123" x1="-117.62" y1="-13.24" x2="123.22" y2="113.53" xlink:href="#未命名的渐变"/><linearGradient id="未命名的渐变-124" x1="-120.79" y1="-7.22" x2="120.05" y2="119.55" xlink:href="#未命名的渐变"/><linearGradient id="未命名的渐变-125" x1="-123.84" y1="-1.43" x2="117" y2="125.33" xlink:href="#未命名的渐变"/><linearGradient id="未命名的渐变-126" x1="-127.09" y1="4.75" x2="113.75" y2="131.51" xlink:href="#未命名的渐变"/><linearGradient id="未命名的渐变-127" x1="-130.26" y1="10.77" x2="110.58" y2="137.53" xlink:href="#未命名的渐变"/><linearGradient id="未命名的渐变-128" x1="-133.3" y1="16.55" x2="107.54" y2="143.32" xlink:href="#未命名的渐变"/><linearGradient id="未命名的渐变-129" x1="-136.51" y1="22.65" x2="104.33" y2="149.41" xlink:href="#未命名的渐变"/><linearGradient id="未命名的渐变-130" x1="-139.68" y1="28.67" x2="101.16" y2="155.43" xlink:href="#未命名的渐变"/><linearGradient id="未命名的渐变-131" x1="-142.73" y1="34.45" x2="98.11" y2="161.22" xlink:href="#未命名的渐变"/><linearGradient id="未命名的渐变-132" x1="-146.06" y1="40.79" x2="94.78" y2="167.56" xlink:href="#未命名的渐变"/><linearGradient id="未命名的渐变-133" x1="-149.23" y1="46.81" x2="91.61" y2="173.58" xlink:href="#未命名的渐变"/><linearGradient id="未命名的渐变-134" x1="-152.28" y1="52.6" x2="88.56" y2="179.37" xlink:href="#未命名的渐变"/><linearGradient id="未命名的渐变-135" x1="-145.68" y1="40.06" x2="95.16" y2="166.83" xlink:href="#未命名的渐变"/><linearGradient id="未命名的渐变-136" x1="-149.02" y1="46.4" x2="91.82" y2="173.17" xlink:href="#未命名的渐变"/><linearGradient id="未命名的渐变-137" x1="-151.98" y1="52.03" x2="88.86" y2="178.8" xlink:href="#未命名的渐变"/><linearGradient id="未命名的渐变-138" x1="-155.23" y1="58.21" x2="85.61" y2="184.98" xlink:href="#未命名的渐变"/><linearGradient id="未命名的渐变-139" x1="-158.4" y1="64.23" x2="82.44" y2="191" xlink:href="#未命名的渐变"/><linearGradient id="未命名的渐变-140" x1="-161.45" y1="70.01" x2="79.4" y2="196.78" xlink:href="#未命名的渐变"/><linearGradient id="未命名的渐变-141" x1="-109.18" y1="-29.28" x2="131.66" y2="97.49" xlink:href="#未命名的渐变"/><linearGradient id="未命名的渐变-142" x1="-112.44" y1="-23.1" x2="128.41" y2="103.67" xlink:href="#未命名的渐变"/><linearGradient id="未命名的渐变-143" x1="-115.57" y1="-17.15" x2="125.27" y2="109.62" xlink:href="#未命名的渐变"/><linearGradient id="未命名的渐变-144" x1="-118.74" y1="-11.11" x2="122.1" y2="115.66" xlink:href="#未命名的渐变"/><linearGradient id="未命名的渐变-145" x1="-121.91" y1="-5.09" x2="118.93" y2="121.68" xlink:href="#未命名的渐变"/><linearGradient id="未命名的渐变-146" x1="-124.96" y1="0.7" x2="115.88" y2="127.47" xlink:href="#未命名的渐变"/><linearGradient id="未命名的渐变-147" x1="-128.13" y1="6.72" x2="112.71" y2="133.49" xlink:href="#未命名的渐变"/><linearGradient id="未命名的渐变-148" x1="-131.47" y1="13.06" x2="109.37" y2="139.83" xlink:href="#未命名的渐变"/><linearGradient id="未命名的渐变-149" x1="-134.51" y1="18.85" x2="106.33" y2="145.61" xlink:href="#未命名的渐变"/><linearGradient id="未命名的渐变-150" x1="-127.42" y1="5.38" x2="113.42" y2="132.14" xlink:href="#未命名的渐变"/><linearGradient id="未命名的渐变-151" x1="-130.76" y1="11.72" x2="110.08" y2="138.49" xlink:href="#未命名的渐变"/><linearGradient id="未命名的渐变-152" x1="-133.64" y1="17.18" x2="107.2" y2="143.95" xlink:href="#未命名的渐变"/><linearGradient id="未命名的渐变-153" x1="-136.8" y1="23.2" x2="104.04" y2="149.97" xlink:href="#未命名的渐变"/><linearGradient id="未命名的渐变-154" x1="-140.14" y1="29.54" x2="100.7" y2="156.31" xlink:href="#未命名的渐变"/><linearGradient id="未命名的渐变-155" x1="-143.19" y1="35.33" x2="97.65" y2="162.1" xlink:href="#未命名的渐变"/><linearGradient id="未命名的渐变-156" x1="-136.75" y1="23.11" x2="104.09" y2="149.88" xlink:href="#未命名的渐变"/><linearGradient id="未命名的渐变-157" x1="-140.09" y1="29.45" x2="100.75" y2="156.22" xlink:href="#未命名的渐变"/><linearGradient id="未命名的渐变-158" x1="-143.05" y1="35.07" x2="97.79" y2="161.84" xlink:href="#未命名的渐变"/><linearGradient id="未命名的渐变-159" x1="-146.31" y1="41.25" x2="94.53" y2="168.02" xlink:href="#未命名的渐变"/><linearGradient id="未命名的渐变-160" x1="-149.48" y1="47.27" x2="91.36" y2="174.04" xlink:href="#未命名的渐变"/><linearGradient id="未命名的渐变-161" x1="-152.52" y1="53.06" x2="88.32" y2="179.83" xlink:href="#未命名的渐变"/><linearGradient id="未命名的渐变-162" x1="-127.75" y1="6" x2="113.09" y2="132.77" xlink:href="#未命名的渐变"/><linearGradient id="未命名的渐变-163" x1="-131.09" y1="12.34" x2="109.75" y2="139.11" xlink:href="#未命名的渐变"/><linearGradient id="未命名的渐变-164" x1="-134.05" y1="17.97" x2="106.79" y2="144.74" xlink:href="#未命名的渐变"/><linearGradient id="未命名的渐变-165" x1="-137.3" y1="24.15" x2="103.54" y2="150.92" xlink:href="#未命名的渐变"/><linearGradient id="未命名的渐变-166" x1="-140.47" y1="30.17" x2="100.37" y2="156.94" xlink:href="#未命名的渐变"/><linearGradient id="未命名的渐变-167" x1="-143.52" y1="35.96" x2="97.32" y2="162.73" xlink:href="#未命名的渐变"/></defs><g id="图层_2" data-name="图层 2"><g id="图层_1-2" data-name="图层 1"><polygon class="cls-1" points="18.54 10.79 18.54 4.25 12.88 0.98 7.22 4.25 7.22 10.79 12.88 14.06 18.54 10.79"/><polygon class="cls-2" points="25.34 22.06 25.34 15.52 19.68 12.25 14.01 15.52 14.01 22.06 19.68 25.33 25.34 22.06"/><polygon class="cls-3" points="11.75 22.3 11.75 15.76 6.08 12.49 0.42 15.76 0.42 22.3 6.08 25.56 11.75 22.3"/><polygon class="cls-4" points="18.54 33.79 18.54 27.25 12.88 23.98 7.22 27.25 7.22 33.79 12.88 37.06 18.54 33.79"/><polygon class="cls-5" points="25.34 45.05 25.34 38.52 19.68 35.25 14.01 38.52 14.01 45.05 19.68 48.32 25.34 45.05"/><polygon class="cls-6" points="11.75 45.29 11.75 38.75 6.08 35.48 0.42 38.75 0.42 45.29 6.08 48.56 11.75 45.29"/><polygon class="cls-7" points="38.93 22.2 38.93 15.66 33.27 12.39 27.6 15.66 27.6 22.2 33.27 25.47 38.93 22.2"/><polygon class="cls-8" points="45.72 33.47 45.72 26.93 40.06 23.66 34.4 26.93 34.4 33.47 40.06 36.74 45.72 33.47"/><polygon class="cls-9" points="32.13 33.7 32.13 27.16 26.47 23.9 20.81 27.16 20.81 33.7 26.47 36.97 32.13 33.7"/><polygon class="cls-10" points="59.27 10.62 59.27 4.08 53.6 0.82 47.94 4.08 47.94 10.62 53.6 13.89 59.27 10.62"/><polygon class="cls-11" points="66.06 21.89 66.06 15.35 60.4 12.08 54.74 15.35 54.74 21.89 60.4 25.16 66.06 21.89"/><polygon class="cls-12" points="52.47 22.13 52.47 15.59 46.81 12.32 41.15 15.59 41.15 22.13 46.81 25.39 52.47 22.13"/><polygon class="cls-13" points="59.27 33.62 59.27 27.08 53.6 23.81 47.94 27.08 47.94 33.62 53.6 36.89 59.27 33.62"/><polygon class="cls-14" points="66.06 44.88 66.06 38.35 60.4 35.08 54.74 38.35 54.74 44.88 60.4 48.15 66.06 44.88"/><polygon class="cls-15" points="52.47 45.12 52.47 38.58 46.81 35.31 41.15 38.58 41.15 45.12 46.81 48.39 52.47 45.12"/><polygon class="cls-16" points="79.65 22.03 79.65 15.49 73.99 12.22 68.33 15.49 68.33 22.03 73.99 25.3 79.65 22.03"/><polygon class="cls-17" points="86.45 33.3 86.45 26.76 80.78 23.49 75.12 26.76 75.12 33.3 80.78 36.57 86.45 33.3"/><polygon class="cls-18" points="72.86 33.53 72.86 27 67.19 23.73 61.53 27 61.53 33.53 67.19 36.8 72.86 33.53"/><polygon class="cls-19" points="38.91 45.38 38.91 38.84 33.24 35.57 27.58 38.84 27.58 45.38 33.24 48.65 38.91 45.38"/><polygon class="cls-20" points="45.7 56.64 45.7 50.1 40.04 46.83 34.38 50.1 34.38 56.64 40.04 59.91 45.7 56.64"/><polygon class="cls-21" points="32.11 56.88 32.11 50.34 26.45 47.07 20.79 50.34 20.79 56.88 26.45 60.15 32.11 56.88"/><polygon class="cls-22" points="38.91 68.37 38.91 61.83 33.24 58.56 27.58 61.83 27.58 68.37 33.24 71.64 38.91 68.37"/><polygon class="cls-23" points="45.7 79.64 45.7 73.1 40.04 69.83 34.38 73.1 34.38 79.64 40.04 82.91 45.7 79.64"/><polygon class="cls-24" points="32.11 79.87 32.11 73.33 26.45 70.07 20.79 73.33 20.79 79.87 26.45 83.14 32.11 79.87"/><polygon class="cls-25" points="59.29 56.78 59.29 50.25 53.63 46.98 47.97 50.25 47.97 56.78 53.63 60.05 59.29 56.78"/><polygon class="cls-26" points="66.09 68.05 66.09 61.51 60.42 58.24 54.76 61.51 54.76 68.05 60.42 71.32 66.09 68.05"/><polygon class="cls-27" points="52.5 68.29 52.5 61.75 46.84 58.48 41.17 61.75 41.17 68.29 46.84 71.56 52.5 68.29"/><polygon class="cls-28" points="18.5 56.94 18.5 50.4 12.83 47.13 7.17 50.4 7.17 56.94 12.83 60.21 18.5 56.94"/><polygon class="cls-29" points="25.29 68.2 25.29 61.67 19.63 58.4 13.96 61.67 13.96 68.2 19.63 71.47 25.29 68.2"/><polygon class="cls-30" points="11.7 68.44 11.7 61.9 6.04 58.63 0.38 61.9 0.38 68.44 6.04 71.71 11.7 68.44"/><polygon class="cls-31" points="18.5 79.97 18.5 73.43 12.83 70.16 7.17 73.43 7.17 79.97 12.83 83.24 18.5 79.97"/><polygon class="cls-32" points="25.29 91.24 25.29 84.7 19.63 81.43 13.96 84.7 13.96 91.24 19.63 94.51 25.29 91.24"/><polygon class="cls-33" points="11.7 91.47 11.7 84.94 6.04 81.67 0.38 84.94 0.38 91.47 6.04 94.74 11.7 91.47"/><polygon class="cls-34" points="18.56 103.05 18.56 96.51 12.9 93.25 7.24 96.51 7.24 103.05 12.9 106.32 18.56 103.05"/><polygon class="cls-35" points="25.36 114.32 25.36 107.78 19.7 104.51 14.03 107.78 14.03 114.32 19.7 117.59 25.36 114.32"/><polygon class="cls-36" points="11.77 114.56 11.77 108.02 6.11 104.75 0.44 108.02 0.44 114.56 6.11 117.82 11.77 114.56"/><polygon class="cls-37" points="18.56 126.05 18.56 119.51 12.9 116.24 7.24 119.51 7.24 126.05 12.9 129.32 18.56 126.05"/><polygon class="cls-38" points="25.36 137.31 25.36 130.78 19.7 127.51 14.03 130.78 14.03 137.31 19.7 140.58 25.36 137.31"/><polygon class="cls-39" points="11.77 137.55 11.77 131.01 6.11 127.74 0.44 131.01 0.44 137.55 6.11 140.82 11.77 137.55"/><polygon class="cls-40" points="18.52 149.2 18.52 142.66 12.85 139.39 7.19 142.66 7.19 149.2 12.85 152.47 18.52 149.2"/><polygon class="cls-41" points="25.31 160.46 25.31 153.93 19.65 150.66 13.98 153.93 13.98 160.46 19.65 163.73 25.31 160.46"/><polygon class="cls-42" points="11.72 160.7 11.72 154.16 6.06 150.89 0.4 154.16 0.4 160.7 6.06 163.97 11.72 160.7"/><polygon class="cls-43" points="100 10.4 100 3.86 94.34 0.59 88.68 3.86 88.68 10.4 94.34 13.66 100 10.4"/><polygon class="cls-44" points="106.8 21.66 106.8 15.12 101.14 11.85 95.47 15.12 95.47 21.66 101.14 24.93 106.8 21.66"/><polygon class="cls-45" points="93.21 21.9 93.21 15.36 87.55 12.09 81.88 15.36 81.88 21.9 87.55 25.17 93.21 21.9"/><polygon class="cls-46" points="100 33.39 100 26.85 94.34 23.58 88.68 26.85 88.68 33.39 94.34 36.66 100 33.39"/><polygon class="cls-47" points="106.8 44.66 106.8 38.12 101.14 34.85 95.47 38.12 95.47 44.66 101.14 47.93 106.8 44.66"/><polygon class="cls-48" points="93.21 44.89 93.21 38.35 87.55 35.09 81.88 38.35 81.88 44.89 87.55 48.16 93.21 44.89"/><polygon class="cls-49" points="120.39 21.8 120.39 15.27 114.73 12 109.06 15.27 109.06 21.8 114.73 25.07 120.39 21.8"/><polygon class="cls-50" points="127.18 33.07 127.18 26.53 121.52 23.26 115.86 26.53 115.86 33.07 121.52 36.34 127.18 33.07"/><polygon class="cls-51" points="113.59 33.31 113.59 26.77 107.93 23.5 102.27 26.77 102.27 33.31 107.93 36.58 113.59 33.31"/><polygon class="cls-52" points="140.87 10.24 140.87 3.7 135.2 0.43 129.54 3.7 129.54 10.24 135.2 13.51 140.87 10.24"/><polygon class="cls-53" points="147.66 21.51 147.66 14.97 142 11.7 136.34 14.97 136.34 21.51 142 24.77 147.66 21.51"/><polygon class="cls-54" points="134.07 21.74 134.07 15.2 128.41 11.94 122.75 15.2 122.75 21.74 128.41 25.01 134.07 21.74"/><polygon class="cls-55" points="140.87 33.24 140.87 26.7 135.2 23.43 129.54 26.7 129.54 33.24 135.2 36.51 140.87 33.24"/><polygon class="cls-56" points="147.66 44.5 147.66 37.96 142 34.69 136.34 37.96 136.34 44.5 142 47.77 147.66 44.5"/><polygon class="cls-57" points="134.07 44.74 134.07 38.2 128.41 34.93 122.75 38.2 122.75 44.74 128.41 48.01 134.07 44.74"/><polygon class="cls-58" points="161.25 21.65 161.25 15.11 155.59 11.84 149.93 15.11 149.93 21.65 155.59 24.92 161.25 21.65"/><polygon class="cls-59" points="168.05 32.91 168.05 26.38 162.38 23.11 156.72 26.38 156.72 32.91 162.38 36.18 168.05 32.91"/><polygon class="cls-60" points="154.46 33.15 154.46 26.61 148.79 23.34 143.13 26.61 143.13 33.15 148.79 36.42 154.46 33.15"/><polygon class="cls-61" points="161.29 44.65 161.29 38.11 155.63 34.84 149.96 38.11 149.96 44.65 155.63 47.92 161.29 44.65"/><polygon class="cls-62" points="168.08 55.92 168.08 49.38 162.42 46.11 156.76 49.38 156.76 55.92 162.42 59.19 168.08 55.92"/><polygon class="cls-63" points="154.49 56.15 154.49 49.62 148.83 46.35 143.17 49.62 143.17 56.15 148.83 59.42 154.49 56.15"/><polygon class="cls-64" points="161.24 67.8 161.24 61.27 155.58 57.99 149.92 61.27 149.92 67.8 155.58 71.07 161.24 67.8"/><polygon class="cls-65" points="168.04 79.07 168.04 72.53 162.38 69.26 156.71 72.53 156.71 79.07 162.38 82.34 168.04 79.07"/><polygon class="cls-66" points="154.45 79.31 154.45 72.77 148.78 69.5 143.12 72.77 143.12 79.31 148.78 82.57 154.45 79.31"/><polygon class="cls-67" points="161.24 90.83 161.24 84.3 155.58 81.03 149.92 84.3 149.92 90.83 155.58 94.1 161.24 90.83"/><polygon class="cls-68" points="168.04 102.1 168.04 95.56 162.38 92.29 156.71 95.56 156.71 102.1 162.38 105.37 168.04 102.1"/><polygon class="cls-69" points="154.45 102.34 154.45 95.8 148.78 92.53 143.12 95.8 143.12 102.34 148.78 105.61 154.45 102.34"/><polygon class="cls-70" points="161.31 113.92 161.31 107.38 155.65 104.11 149.98 107.38 149.98 113.92 155.65 117.19 161.31 113.92"/><polygon class="cls-71" points="168.1 125.18 168.1 118.64 162.44 115.37 156.78 118.64 156.78 125.18 162.44 128.45 168.1 125.18"/><polygon class="cls-72" points="154.51 125.42 154.51 118.88 148.85 115.61 143.19 118.88 143.19 125.42 148.85 128.69 154.51 125.42"/><polygon class="cls-73" points="161.31 136.91 161.31 130.37 155.65 127.1 149.98 130.37 149.98 136.91 155.65 140.18 161.31 136.91"/><polygon class="cls-74" points="168.1 148.18 168.1 141.64 162.44 138.37 156.78 141.64 156.78 148.18 162.44 151.45 168.1 148.18"/><polygon class="cls-75" points="154.51 148.41 154.51 141.88 148.85 138.61 143.19 141.88 143.19 148.41 148.85 151.68 154.51 148.41"/><polygon class="cls-76" points="161.26 160.06 161.26 153.52 155.6 150.25 149.94 153.52 149.94 160.06 155.6 163.33 161.26 160.06"/><polygon class="cls-77" points="168.06 171.33 168.06 164.79 162.4 161.52 156.73 164.79 156.73 171.33 162.4 174.6 168.06 171.33"/><polygon class="cls-78" points="154.47 171.56 154.47 165.03 148.81 161.76 143.14 165.03 143.14 171.56 148.81 174.83 154.47 171.56"/><polygon class="cls-79" points="38.84 91.48 38.84 84.94 33.18 81.67 27.52 84.94 27.52 91.48 33.18 94.75 38.84 91.48"/><polygon class="cls-80" points="45.63 102.75 45.63 96.21 39.97 92.94 34.31 96.21 34.31 102.75 39.97 106.02 45.63 102.75"/><polygon class="cls-81" points="32.05 102.98 32.05 96.45 26.38 93.18 20.72 96.45 20.72 102.98 26.38 106.25 32.05 102.98"/><polygon class="cls-82" points="38.84 114.48 38.84 107.94 33.18 104.67 27.52 107.94 27.52 114.48 33.18 117.75 38.84 114.48"/><polygon class="cls-83" points="45.63 125.74 45.63 119.2 39.97 115.94 34.31 119.2 34.31 125.74 39.97 129.01 45.63 125.74"/><polygon class="cls-84" points="32.05 125.98 32.05 119.44 26.38 116.17 20.72 119.44 20.72 125.98 26.38 129.25 32.05 125.98"/><polygon class="cls-85" points="59.16 79.44 59.16 72.9 53.5 69.64 47.84 72.9 47.84 79.44 53.5 82.71 59.16 79.44"/><polygon class="cls-86" points="65.96 90.71 65.96 84.17 60.3 80.9 54.63 84.17 54.63 90.71 60.3 93.98 65.96 90.71"/><polygon class="cls-87" points="52.37 90.94 52.37 84.41 46.71 81.14 41.04 84.41 41.04 90.94 46.71 94.21 52.37 90.94"/><polygon class="cls-88" points="59.16 102.44 59.16 95.9 53.5 92.63 47.84 95.9 47.84 102.44 53.5 105.71 59.16 102.44"/><polygon class="cls-89" points="65.96 113.7 65.96 107.16 60.3 103.89 54.63 107.16 54.63 113.7 60.3 116.97 65.96 113.7"/><polygon class="cls-90" points="52.37 113.94 52.37 107.4 46.71 104.13 41.04 107.4 41.04 113.94 46.71 117.21 52.37 113.94"/><polygon class="cls-91" points="79.6 45.02 79.6 38.48 73.94 35.21 68.28 38.48 68.28 45.02 73.94 48.29 79.6 45.02"/><polygon class="cls-92" points="86.39 56.29 86.39 49.75 80.73 46.48 75.07 49.75 75.07 56.29 80.73 59.56 86.39 56.29"/><polygon class="cls-93" points="72.81 56.52 72.81 49.98 67.14 46.72 61.48 49.98 61.48 56.52 67.14 59.79 72.81 56.52"/><polygon class="cls-94" points="79.6 68.02 79.6 61.48 73.94 58.21 68.28 61.48 68.28 68.02 73.94 71.29 79.6 68.02"/><polygon class="cls-95" points="86.39 79.28 86.39 72.74 80.73 69.47 75.07 72.74 75.07 79.28 80.73 82.55 86.39 79.28"/><polygon class="cls-96" points="72.81 79.52 72.81 72.98 67.14 69.71 61.48 72.98 61.48 79.52 67.14 82.79 72.81 79.52"/><polygon class="cls-97" points="120.28 45.14 120.28 38.6 114.62 35.34 108.96 38.6 108.96 45.14 114.62 48.41 120.28 45.14"/><polygon class="cls-98" points="127.08 56.41 127.08 49.87 121.42 46.6 115.75 49.87 115.75 56.41 121.42 59.68 127.08 56.41"/><polygon class="cls-99" points="113.49 56.65 113.49 50.11 107.83 46.84 102.16 50.11 102.16 56.65 107.83 59.91 113.49 56.65"/><polygon class="cls-100" points="120.35 68.22 120.35 61.69 114.69 58.42 109.03 61.69 109.03 68.22 114.69 71.49 120.35 68.22"/><polygon class="cls-101" points="127.14 79.49 127.14 72.95 121.48 69.68 115.82 72.95 115.82 79.49 121.48 82.76 127.14 79.49"/><polygon class="cls-102" points="113.56 79.11 113.56 72.57 107.89 69.3 102.23 72.57 102.23 79.11 107.89 82.38 113.56 79.11"/><polygon class="cls-103" points="120.35 91.22 120.35 84.68 114.69 81.41 109.03 84.68 109.03 91.22 114.69 94.49 120.35 91.22"/><polygon class="cls-104" points="127.14 102.48 127.14 95.95 121.48 92.68 115.82 95.95 115.82 102.48 121.48 105.75 127.14 102.48"/><polygon class="cls-105" points="113.56 102.72 113.56 96.18 107.89 92.91 102.23 96.18 102.23 102.72 107.89 105.99 113.56 102.72"/><polygon class="cls-106" points="120.3 114.37 120.3 107.83 114.64 104.56 108.98 107.83 108.98 114.37 114.64 117.64 120.3 114.37"/><polygon class="cls-107" points="127.1 125.64 127.1 119.1 121.44 115.83 115.77 119.1 115.77 125.64 121.44 128.91 127.1 125.64"/><polygon class="cls-108" points="113.51 125.87 113.51 119.33 107.84 116.06 102.18 119.33 102.18 125.87 107.84 129.14 113.51 125.87"/><polygon class="cls-109" points="99.98 56.68 99.98 50.15 94.32 46.88 88.66 50.15 88.66 56.68 94.32 59.95 99.98 56.68"/><polygon class="cls-110" points="106.78 67.74 106.78 61.2 101.11 57.94 95.45 61.2 95.45 67.74 101.11 71.01 106.78 67.74"/><polygon class="cls-111" points="93.19 68.19 93.19 61.65 87.52 58.38 81.86 61.65 81.86 68.19 87.52 71.45 93.19 68.19"/><polygon class="cls-112" points="99.98 79.27 99.98 72.73 94.32 69.46 88.66 72.73 88.66 79.27 94.32 82.54 99.98 79.27"/><polygon class="cls-113" points="106.78 90.74 106.78 84.2 101.11 80.93 95.45 84.2 95.45 90.74 101.11 94.01 106.78 90.74"/><polygon class="cls-114" points="93.19 90.98 93.19 84.44 87.52 81.17 81.86 84.44 81.86 90.98 87.52 94.25 93.19 90.98"/><polygon class="cls-115" points="99.94 102.21 99.94 95.67 94.27 92.41 88.61 95.67 88.61 102.21 94.27 105.48 99.94 102.21"/><polygon class="cls-116" points="106.73 113.48 106.73 106.94 101.07 103.67 95.41 106.94 95.41 113.48 101.07 116.75 106.73 113.48"/><polygon class="cls-117" points="93.14 113.72 93.14 107.18 87.48 103.91 81.81 107.18 81.81 113.72 87.48 116.98 93.14 113.72"/><polygon class="cls-118" points="140.86 56.25 140.86 49.71 135.2 46.44 129.54 49.71 129.54 56.25 135.2 59.52 140.86 56.25"/><polygon class="cls-119" points="147.66 67.51 147.66 60.97 141.99 57.7 136.33 60.97 136.33 67.51 141.99 70.78 147.66 67.51"/><polygon class="cls-120" points="134.07 67.54 134.07 61.01 128.4 57.73 122.74 61.01 122.74 67.54 128.4 70.81 134.07 67.54"/><polygon class="cls-121" points="140.86 79.24 140.86 72.7 135.2 69.44 129.54 72.7 129.54 79.24 135.2 82.51 140.86 79.24"/><polygon class="cls-122" points="147.66 90.51 147.66 83.97 141.99 80.7 136.33 83.97 136.33 90.51 141.99 93.78 147.66 90.51"/><polygon class="cls-123" points="134.07 90.74 134.07 84.21 128.4 80.94 122.74 84.21 122.74 90.74 128.4 94.01 134.07 90.74"/><polygon class="cls-124" points="79.58 90.85 79.58 84.31 73.92 81.04 68.26 84.31 68.26 90.85 73.92 94.12 79.58 90.85"/><polygon class="cls-125" points="86.38 102.11 86.38 95.57 80.72 92.31 75.05 95.57 75.05 102.11 80.72 105.38 86.38 102.11"/><polygon class="cls-126" points="72.79 102.35 72.79 95.81 67.13 92.54 61.46 95.81 61.46 102.35 67.13 105.62 72.79 102.35"/><polygon class="cls-127" points="79.53 113.79 79.53 107.25 73.87 103.98 68.21 107.25 68.21 113.79 73.87 117.06 79.53 113.79"/><polygon class="cls-128" points="86.33 125.06 86.33 118.52 80.67 115.25 75 118.52 75 125.06 80.67 128.33 86.33 125.06"/><polygon class="cls-129" points="72.74 125.3 72.74 118.76 67.08 115.49 61.41 118.76 61.41 125.3 67.08 128.56 72.74 125.3"/><polygon class="cls-130" points="59.18 125.94 59.18 119.4 53.52 116.13 47.86 119.4 47.86 125.94 53.52 129.21 59.18 125.94"/><polygon class="cls-131" points="65.98 137.2 65.98 130.67 60.31 127.4 54.65 130.67 54.65 137.2 60.31 140.47 65.98 137.2"/><polygon class="cls-132" points="52.39 137.44 52.39 130.9 46.73 127.63 41.06 130.9 41.06 137.44 46.73 140.71 52.39 137.44"/><polygon class="cls-133" points="59.13 149.09 59.13 142.55 53.47 139.28 47.81 142.55 47.81 149.09 53.47 152.36 59.13 149.09"/><polygon class="cls-134" points="65.93 160.35 65.93 153.82 60.27 150.55 54.6 153.82 54.6 160.35 60.27 163.63 65.93 160.35"/><polygon class="cls-135" points="52.34 160.59 52.34 154.05 46.68 150.78 41.02 154.05 41.02 160.59 46.68 163.86 52.34 160.59"/><polygon class="cls-136" points="38.89 137.5 38.89 130.96 33.23 127.69 27.56 130.96 27.56 137.5 33.23 140.77 38.89 137.5"/><polygon class="cls-137" points="45.68 149.17 45.68 142.63 40.02 139.37 34.36 142.63 34.36 149.17 40.02 152.44 45.68 149.17"/><polygon class="cls-138" points="32.09 149.2 32.09 142.67 26.43 139.4 20.77 142.67 20.77 149.2 26.43 152.47 32.09 149.2"/><polygon class="cls-139" points="38.84 160.65 38.84 154.11 33.18 150.84 27.52 154.11 27.52 160.65 33.18 163.92 38.84 160.65"/><polygon class="cls-140" points="45.64 171.91 45.64 165.37 39.97 162.1 34.31 165.37 34.31 171.91 39.97 175.18 45.64 171.91"/><polygon class="cls-141" points="32.05 172.15 32.05 165.61 26.38 162.34 20.72 165.61 20.72 172.15 26.38 175.42 32.05 172.15"/><polygon class="cls-142" points="140.76 102.57 140.76 96.03 135.09 92.76 129.43 96.03 129.43 102.57 135.09 105.84 140.76 102.57"/><polygon class="cls-143" points="147.55 114.04 147.55 107.5 141.89 104.23 136.23 107.5 136.23 114.04 141.89 117.31 147.55 114.04"/><polygon class="cls-144" points="133.96 114.48 133.96 107.94 128.3 104.67 122.64 107.94 122.64 114.48 128.3 117.75 133.96 114.48"/><polygon class="cls-145" points="140.76 125.77 140.76 119.23 135.09 115.96 129.43 119.23 129.43 125.77 135.09 129.04 140.76 125.77"/><polygon class="cls-146" points="147.55 137.04 147.55 130.5 141.89 127.23 136.23 130.5 136.23 137.04 141.89 140.31 147.55 137.04"/><polygon class="cls-147" points="133.96 137.27 133.96 130.73 128.3 127.47 122.64 130.73 122.64 137.27 128.3 140.54 133.96 137.27"/><polygon class="cls-148" points="140.71 148.51 140.71 141.97 135.05 138.7 129.38 141.97 129.38 148.51 135.05 151.78 140.71 148.51"/><polygon class="cls-149" points="147.5 160.19 147.5 153.65 141.84 150.38 136.18 153.65 136.18 160.19 141.84 163.46 147.5 160.19"/><polygon class="cls-150" points="133.91 160.42 133.91 153.88 128.25 150.62 122.59 153.88 122.59 160.42 128.25 163.69 133.91 160.42"/><polygon class="cls-151" points="99.89 125.31 99.89 118.77 94.22 115.5 88.56 118.77 88.56 125.31 94.22 128.58 99.89 125.31"/><polygon class="cls-152" points="106.68 136.99 106.68 130.45 101.02 127.18 95.36 130.45 95.36 136.99 101.02 140.26 106.68 136.99"/><polygon class="cls-153" points="93.09 136.81 93.09 130.28 87.43 127.01 81.77 130.28 81.77 136.81 87.43 140.08 93.09 136.81"/><polygon class="cls-154" points="99.84 148.05 99.84 141.51 94.18 138.24 88.52 141.51 88.52 148.05 94.18 151.32 99.84 148.05"/><polygon class="cls-155" points="106.64 159.73 106.64 153.19 100.97 149.92 95.31 153.19 95.31 159.73 100.97 163 106.64 159.73"/><polygon class="cls-156" points="93.05 159.96 93.05 153.43 87.38 150.16 81.72 153.43 81.72 159.96 87.38 163.23 93.05 159.96"/><polygon class="cls-157" points="79.53 137.24 79.53 130.7 73.87 127.43 68.2 130.7 68.2 137.24 73.87 140.51 79.53 137.24"/><polygon class="cls-158" points="86.33 148.91 86.33 142.38 80.66 139.11 75 142.38 75 148.91 80.66 152.18 86.33 148.91"/><polygon class="cls-159" points="72.73 148.95 72.73 142.41 67.07 139.14 61.41 142.41 61.41 148.95 67.07 152.22 72.73 148.95"/><polygon class="cls-160" points="79.48 160.39 79.48 153.85 73.82 150.58 68.16 153.85 68.16 160.39 73.82 163.66 79.48 160.39"/><polygon class="cls-161" points="86.28 171.66 86.28 165.12 80.61 161.85 74.95 165.12 74.95 171.66 80.61 174.92 86.28 171.66"/><polygon class="cls-162" points="72.69 171.89 72.69 165.35 67.03 162.08 61.36 165.35 61.36 171.89 67.03 175.16 72.69 171.89"/><polygon class="cls-163" points="120.25 136.83 120.25 130.29 114.58 127.02 108.92 130.29 108.92 136.83 114.58 140.1 120.25 136.83"/><polygon class="cls-164" points="127.04 148.5 127.04 141.97 121.38 138.7 115.72 141.97 115.72 148.5 121.38 151.77 127.04 148.5"/><polygon class="cls-165" points="113.45 148.53 113.45 142 107.79 138.73 102.13 142 102.13 148.53 107.79 151.8 113.45 148.53"/><polygon class="cls-166" points="120.2 159.98 120.2 153.44 114.54 150.17 108.87 153.44 108.87 159.98 114.54 163.25 120.2 159.98"/><polygon class="cls-167" points="126.99 171.24 126.99 164.71 121.33 161.44 115.67 164.71 115.67 171.24 121.33 174.51 126.99 171.24"/><polygon class="cls-168" points="113.4 171.48 113.4 164.94 107.74 161.67 102.08 164.94 102.08 171.48 107.74 174.75 113.4 171.48"/></g></g></svg>