<svg xmlns="http://www.w3.org/2000/svg" viewBox="0 0 74.66 108.4"><defs><style>.cls-1{fill:#262626;}</style></defs><g id="图层_2" data-name="图层 2"><g id="图层_1-2" data-name="图层 1"><polygon class="cls-1" points="2.91 6.06 0 6.85 0 16.69 1.05 17.55 0 17 0 27.97 1.43 28.67 0 28.52 0 44.04 2.23 44.05 0 44.85 0 64.76 2.78 61.71 0 66.44 0 87.59 2.41 86.73 0 88.21 0 96.68 5.27 97.23 0 97.78 0 108.4 3.07 108.4 7.77 103.25 4.74 108.4 20.65 108.4 22.36 105.58 21.55 108.4 38.56 108.4 39.63 103.34 39.63 108.4 66.29 108.4 69.45 104.05 67.5 108.4 72 108.4 72.32 101.81 73.38 108.4 74.66 108.4 74.66 90.56 70.91 86.66 74.66 89.21 74.66 75.6 71.67 77.75 74.66 74.48 74.66 56.3 71.24 55.94 74.66 55.59 74.66 46.5 70.92 46.12 74.66 45.73 74.66 38.26 72.9 40.19 74.66 37.2 74.66 22.84 69.32 25.22 74.66 21.35 74.66 14.68 73.27 15.17 74.66 14.32 74.66 5.12 70.41 4.67 74.66 4.23 74.66 0 73.45 0 70.98 2.71 72.57 0 64.42 0 66.23 3.14 63.42 0 39.67 0 39.12 2.62 39.12 0 27.83 0 27.36 2.26 27.36 0 10.69 0 9.3 1.91 10.15 0 6.63 0 6.43 4.15 5.76 0 0 0 0 6.22 2.91 6.06"/></g></g></svg>