<svg xmlns="http://www.w3.org/2000/svg" viewBox="0 0 145.53 145.53"><defs><style>.cls-1{fill:#333;}.cls-2{fill:none;stroke:#fff;stroke-miterlimit:10;stroke-width:0.51px;}</style></defs><g id="图层_2" data-name="图层 2"><g id="图层_1-2" data-name="图层 1"><path class="cls-1" d="M142.52,0H0V8.58H1.59A3.11,3.11,0,0,1,5.13,6.84,3.06,3.06,0,0,1,7.46,9.19a3.11,3.11,0,0,1-5.87,2H0v13H1.59a3.12,3.12,0,0,1,3.54-1.74,3.08,3.08,0,0,1,2.33,2.36,3.11,3.11,0,0,1-5.87,2H0v13H1.59a3.12,3.12,0,1,1,0,2.6H0v13H1.59a3.12,3.12,0,1,1,0,2.6H0V71H1.59a3.11,3.11,0,0,1,3.54-1.74,3.06,3.06,0,0,1,2.33,2.35,3.12,3.12,0,0,1-5.87,2H0v13H1.59A3.12,3.12,0,0,1,5.13,84.8a3.08,3.08,0,0,1,2.33,2.36,3.11,3.11,0,0,1-5.87,2H0v13H1.59a3.12,3.12,0,1,1,0,2.6H0v13H1.59a3.12,3.12,0,1,1,0,2.6H0v13H1.59a3.11,3.11,0,0,1,3.54-1.74,3.06,3.06,0,0,1,2.33,2.36,3.11,3.11,0,0,1-5.87,2H0v9.61H142.52a3,3,0,0,0,3-3V3A3,3,0,0,0,142.52,0Z"/><line class="cls-2" x1="14.03" y1="9.88" x2="136.18" y2="9.88"/><line class="cls-2" x1="14.03" y1="25.47" x2="136.18" y2="25.47"/><line class="cls-2" x1="14.03" y1="41.06" x2="136.18" y2="41.06"/><line class="cls-2" x1="14.03" y1="17.15" x2="136.18" y2="17.15"/><line class="cls-2" x1="14.03" y1="33.26" x2="136.18" y2="33.26"/><line class="cls-2" x1="14.03" y1="48.86" x2="136.18" y2="48.86"/><line class="cls-2" x1="14.03" y1="64.45" x2="136.18" y2="64.45"/><line class="cls-2" x1="14.03" y1="80.04" x2="136.18" y2="80.04"/><line class="cls-2" x1="14.03" y1="56.13" x2="136.18" y2="56.13"/><line class="cls-2" x1="14.03" y1="72.25" x2="136.18" y2="72.25"/><line class="cls-2" x1="14.03" y1="87.84" x2="136.18" y2="87.84"/><line class="cls-2" x1="14.03" y1="103.43" x2="136.18" y2="103.43"/><line class="cls-2" x1="14.03" y1="95.64" x2="136.18" y2="95.64"/><line class="cls-2" x1="14.03" y1="111.23" x2="136.18" y2="111.23"/><line class="cls-2" x1="14.03" y1="126.82" x2="136.18" y2="126.82"/><line class="cls-2" x1="14.03" y1="118.5" x2="136.18" y2="118.5"/><line class="cls-2" x1="14.03" y1="134.62" x2="136.18" y2="134.62"/></g></g></svg>