<svg xmlns="http://www.w3.org/2000/svg" xmlns:xlink="http://www.w3.org/1999/xlink" viewBox="0 0 65 127.02"><defs><style>.cls-1{fill:#1a1a1a;}.cls-2{fill:url(#未命名的渐变_594);}.cls-3{fill:url(#未命名的渐变_594-2);}.cls-4{fill:url(#未命名的渐变_594-3);}.cls-5{font-size:7px;}.cls-5,.cls-6{fill:#ad08f9;font-family:MicrosoftYaHei-Bold, Microsoft YaHei;font-weight:700;}.cls-6{font-size:5px;}</style><linearGradient id="未命名的渐变_594" x1="12.14" y1="25.07" x2="12.14" y2="53.5" gradientUnits="userSpaceOnUse"><stop offset="0.45" stop-color="#7500ff"/><stop offset="1" stop-color="#b800ff"/></linearGradient><linearGradient id="未命名的渐变_594-2" x1="52.85" y1="24.82" x2="52.85" y2="53.24" xlink:href="#未命名的渐变_594"/><linearGradient id="未命名的渐变_594-3" x1="32.51" y1="26.04" x2="32.51" y2="52.46" xlink:href="#未命名的渐变_594"/></defs><g id="图层_2" data-name="图层 2"><g id="图层_1-2" data-name="图层 1"><path class="cls-1" d="M0,127l34-22.34L65,127V0H0Z"/><polygon class="cls-2" points="21.29 25.07 3 39.38 21.29 53.5 19.98 48.66 8.08 39.35 19.98 29.7 21.29 25.07"/><polygon class="cls-3" points="43.71 24.82 62 39.12 43.71 53.24 45.01 48.4 56.91 39.09 45.01 29.44 43.71 24.82"/><polygon class="cls-4" points="34.47 28.55 38.75 26.04 30.68 50.03 26.26 52.46 34.47 28.55"/><text class="cls-5" transform="translate(25.38 76.07)">后台</text><text class="cls-6" transform="translate(20.06 86.51)">Backstage</text></g></g></svg>