<svg xmlns="http://www.w3.org/2000/svg" viewBox="0 0 65 127.02"><defs><style>.cls-1{fill:#c1db09;}.cls-2,.cls-3,.cls-4{fill:#fff;}.cls-3{font-size:7px;}.cls-3,.cls-4{font-family:MicrosoftYaHei-Bold, Microsoft YaHei;font-weight:700;}.cls-4{font-size:5px;}.cls-5{letter-spacing:0em;}</style></defs><g id="图层_2" data-name="图层 2"><g id="图层_1-2" data-name="图层 1"><path class="cls-1" d="M0,127l34-22.34L65,127V0H0Z"/><path class="cls-2" d="M44.48,34.17c-3.78,0-7.57.13-11.35.13H21.83c-.43,0-.4-.25-.4.19v16.3c0,.15,0,.3,0,.46a2.79,2.79,0,0,0,2.71,2.55c.54,0,1.08,0,1.63,0,.3,0,.37.09.37.38,0,1.75,0,3.49,0,5.24a2.56,2.56,0,0,0,1.29,2.35,2.61,2.61,0,0,0,3.95-2.27c0-1.78,0-3.57,0-5.36,0-.25.05-.34.32-.34q1.43,0,2.85,0c.3,0,.36.1.36.38,0,1.76,0,3.53,0,5.3a2.35,2.35,0,0,0,.06.65,2.6,2.6,0,0,0,2.94,2,2.57,2.57,0,0,0,2.2-2.6c0-1.66,0-3.32,0-5,0-.72,0-.71.72-.72a8.6,8.6,0,0,0,1.83-.06,2.86,2.86,0,0,0,2.22-3c0-5.45,0-10.84,0-16.3C44.86,34.18,44.78,34.17,44.48,34.17Z"/><path class="cls-2" d="M51,36.46c0-.22,0-.45,0-.68a2.62,2.62,0,0,0-2.75-2.23A2.58,2.58,0,0,0,45.78,36c0,1.85,0,3.71,0,5.56s0,3.75,0,5.63a2.55,2.55,0,0,0,1.88,2.36A2.63,2.63,0,0,0,51,47Z"/><path class="cls-2" d="M20.37,35.42a2.89,2.89,0,0,0-3.05-1.86,2.79,2.79,0,0,0-2.49,2.61v5.47c0,1.81.21,3.62.22,5.43a2.51,2.51,0,0,0,.14.52,2.65,2.65,0,0,0,3,2.07,2.59,2.59,0,0,0,2.27-2.6c0-3.63,0-7.26,0-10.89A3.19,3.19,0,0,0,20.37,35.42Z"/><path class="cls-2" d="M44.29,29.82a10.93,10.93,0,0,0-5.16-5.93c-.22-.12-.23-.2-.11-.41.54-1,1.06-1.95,1.6-2.92.13-.22.19-.43-.07-.59s-.4,0-.57.25c-.54,1-1.08,2-1.61,3-.11.2-.21.24-.43.14a12.71,12.71,0,0,0-9.67,0c-.21.09-.3.05-.4-.15-.44-.83-.91-1.66-1.36-2.49-.11-.2-.22-.4-.34-.6a.33.33,0,0,0-.45-.14.32.32,0,0,0-.19.4.83.83,0,0,0,.12.27c.51.95,1,1.9,1.55,2.84.15.25.07.33-.15.45a10.62,10.62,0,0,0-5.69,8.86c0,.29.05.39.36.39,3.79,0,7.57,0,11.36,0H44.47c.31,0,.41-.06.39-.39A10.56,10.56,0,0,0,44.29,29.82ZM27.75,28.9a1,1,0,0,1-1-1,1,1,0,0,1,2,.05A1,1,0,0,1,27.75,28.9Zm10.69,0a1,1,0,0,1-1-1,1,1,0,0,1,1-.95,1,1,0,0,1,1,1A1,1,0,0,1,38.44,28.9Z"/><text class="cls-3" transform="translate(25.6 79.5)">安卓</text><text class="cls-4" transform="translate(22.84 88.43)">And<tspan class="cls-5" x="10.32" y="0">r</tspan><tspan x="12.42" y="0">oid</tspan></text></g></g></svg>