<?xml version="1.0" standalone="no"?><!DOCTYPE svg PUBLIC "-//W3C//DTD SVG 1.1//EN" "http://www.w3.org/Graphics/SVG/1.1/DTD/svg11.dtd"><svg t="1665992005174" class="icon" viewBox="0 0 1024 1024" version="1.1" xmlns="http://www.w3.org/2000/svg" p-id="1843" xmlns:xlink="http://www.w3.org/1999/xlink" width="200" height="200"><path d="M463.42144 716.43136l-199.61856 15.70816c-29.47072 2.31424-55.25504-19.70176-57.56928-49.17248l-2.51904-32.11264c-2.31424-29.47072 19.70176-55.25504 49.17248-57.56928l199.61856-15.70816c5.89824-0.47104 11.0592 3.93216 11.50976 9.8304l9.25696 117.51424c0.43008 5.87776-3.97312 11.03872-9.85088 11.50976z" fill="#D6948C" p-id="1844"></path><path d="M274.3296 741.74464c-41.45152 0-76.67712-31.98976-79.99488-73.99424-3.4816-44.1344 29.61408-82.88256 73.74848-86.34368l180.34688-14.19264c6.53312-0.512 12.9024 1.55648 17.89952 5.81632 4.99712 4.25984 8.02816 10.21952 8.54016 16.77312l8.74496 111.08352c0.512 6.5536-1.55648 12.9024-5.81632 17.89952a24.385536 24.385536 0 0 1-16.77312 8.54016l-180.34688 14.19264c-2.10944 0.14336-4.23936 0.22528-6.3488 0.22528z m176.04608-153.31328c-0.08192 0-0.18432 0-0.26624 0.02048l-180.34688 14.19264c-15.70816 1.2288-29.98272 8.51968-40.22272 20.50048s-15.19616 27.2384-13.94688 42.94656c1.2288 15.70816 8.51968 29.98272 20.50048 40.22272s27.21792 15.17568 42.94656 13.94688l180.34688-14.19264c1.10592-0.08192 1.82272-0.67584 2.23232-1.14688 0.4096-0.47104 0.86016-1.26976 0.77824-2.37568l-8.74496-111.08352a3.23584 3.23584 0 0 0-1.14688-2.23232 3.29728 3.29728 0 0 0-2.12992-0.79872z" p-id="1845"></path><path d="M560.57856 716.43136l199.61856 15.70816c29.47072 2.31424 55.25504-19.70176 57.56928-49.17248l2.51904-32.11264c2.31424-29.47072-19.70176-55.25504-49.17248-57.56928l-199.61856-15.70816a10.684416 10.684416 0 0 0-11.50976 9.8304l-9.25696 117.51424c-0.43008 5.87776 3.97312 11.03872 9.85088 11.50976z" fill="#E8B5B1" p-id="1846"></path><path d="M749.6704 741.74464c-2.10944 0-4.21888-0.08192-6.3488-0.24576l-180.34688-14.19264c-6.5536-0.512-12.51328-3.54304-16.77312-8.54016a24.465408 24.465408 0 0 1-5.81632-17.89952l8.74496-111.08352c1.06496-13.5168 12.9024-23.67488 26.43968-22.58944l180.34688 14.19264c44.1344 3.4816 77.23008 42.20928 73.74848 86.34368-3.31776 42.02496-38.56384 74.01472-79.99488 74.01472z m-176.0256-153.31328c-1.69984 0-3.13344 1.31072-3.25632 3.01056l-8.74496 111.08352c-0.08192 1.1264 0.36864 1.90464 0.77824 2.37568 0.4096 0.47104 1.10592 1.04448 2.23232 1.14688l180.34688 14.19264c15.70816 1.20832 30.96576-3.72736 42.94656-13.94688 11.9808-10.24 19.2512-24.51456 20.50048-40.22272 1.2288-15.70816-3.72736-30.96576-13.94688-42.94656s-24.51456-19.2512-40.22272-20.50048l-180.34688-14.19264h-0.28672z" p-id="1847"></path><path d="M553.51296 814.34624l170.20928-54.02624c31.62112-10.0352 66.64192 3.29728 81.92 32.72704 4.15744 8.02816 6.81984 17.01888 7.5776 26.60352 3.01056 38.33856-25.62048 71.8848-63.95904 74.89536l-221.47072 15.40096 25.72288-95.60064z" fill="#E8B5B1" p-id="1848"></path><path d="M513.61792 921.6l31.10912-115.65056 175.75936-55.78752c37.25312-11.81696 77.04576 4.13696 94.59712 37.96992 4.95616 9.54368 7.90528 19.8656 8.74496 30.67904 3.4816 44.1344-29.61408 82.88256-73.74848 86.34368L513.61792 921.6z m48.68096-98.85696l-20.31616 75.53024 206.56128-14.35648c32.31744-2.53952 56.6272-31.00672 54.08768-63.42656a58.94144 58.94144 0 0 0-6.41024-22.528c-12.75904-24.59648-41.8816-36.16768-69.24288-27.48416l-164.67968 52.26496z" p-id="1849"></path><path d="M469.95456 814.34624l-170.20928-54.02624c-31.62112-10.0352-66.64192 3.29728-81.92 32.72704a69.685248 69.685248 0 0 0-7.5776 26.60352c-3.01056 38.33856 25.62048 71.8848 63.95904 74.89536l221.47072 15.40096-25.72288-95.60064z" fill="#D6948C" p-id="1850"></path><path d="M509.8496 921.6l-236.38016-16.44544c-21.48352-1.69984-40.91904-11.59168-54.86592-27.91424-13.9264-16.30208-20.66432-37.0688-18.98496-58.44992 0.83968-10.79296 3.7888-21.11488 8.74496-30.65856 17.55136-33.83296 57.344-49.80736 94.59712-37.96992l175.75936 55.78752 31.1296 115.65056z m-231.71072-154.0096c-21.15584 0-40.93952 11.24352-50.85184 30.35136a58.968064 58.968064 0 0 0-6.43072 22.528c-1.2288 15.70816 3.72736 30.96576 13.94688 42.94656 10.24 11.9808 24.51456 19.2512 40.22272 20.50048l206.45888 14.35648-20.31616-75.53024-164.6592-52.26496c-6.08256-1.9456-12.288-2.88768-18.37056-2.88768z" p-id="1851"></path><path d="M525.90592 845.78304c-24.82176-28.69248-39.89504-66.08896-39.89504-107.02848 0-32.5632 9.54368-62.8736 25.92768-88.3712a164.560896 164.560896 0 0 1 58.18368-54.6816c-18.16576-6.9632-37.888-10.81344-58.51136-10.81344-90.4192 0-163.69664 73.29792-163.69664 163.69664s73.29792 163.69664 163.69664 163.69664c28.89728 0 56.03328-7.51616 79.58528-20.66432-25.41568-9.70752-47.77984-25.6-65.29024-45.83424z" fill="#D6948C" p-id="1852"></path><path d="M742.13376 239.88224c27.15648-6.92224 47.24736-31.5392 47.24736-60.84608 0-34.67264-28.11904-62.79168-62.79168-62.79168-28.4672 0-52.51072 18.96448-60.19072 44.9536a272.226304 272.226304 0 0 0-74.05568-35.96288l179.93728 179.93728a271.345664 271.345664 0 0 0-30.14656-65.29024z" fill="#E8B5B1" p-id="1853"></path><path d="M592.34304 125.2352a272.2816 272.2816 0 0 0-80.71168-12.1856c-61.8496 0-118.86592 20.5824-164.63872 55.27552-5.07904-29.57312-30.84288-52.06016-61.8496-52.06016-34.67264 0-62.79168 28.11904-62.79168 62.79168 0 32.95232 25.3952 59.96544 57.69216 62.5664-26.13248 41.86112-41.2672 91.29984-41.2672 144.30208 0 150.69184 122.1632 272.83456 272.83456 272.83456 75.93984 0 144.65024-31.0272 194.10944-81.1008l45.8752-61.82912c20.95104-38.62528 32.84992-82.88256 32.84992-129.90464 0-28.11904-4.3008-55.21408-12.1856-80.73216l-179.9168-179.95776z" fill="#D6948C" p-id="1854"></path><path d="M570.14272 595.70176a164.560896 164.560896 0 0 0-58.18368 54.6816 162.910208 162.910208 0 0 0-25.92768 88.3712c0 40.93952 15.0528 78.31552 39.89504 107.02848 17.5104 20.23424 39.87456 36.12672 65.31072 45.8752 50.15552-27.97568 84.11136-81.53088 84.11136-143.0528-0.02048-69.79584-43.70432-129.35168-105.20576-152.90368z" fill="#E8B5B1" p-id="1855"></path><path d="M285.14304 179.03616m-25.10848 0a25.10848 25.10848 0 1 0 50.21696 0 25.10848 25.10848 0 1 0-50.21696 0Z" fill="#FF8E9E" p-id="1856"></path><path d="M285.14304 214.81472c-19.72224 0-35.77856-16.05632-35.77856-35.77856s16.05632-35.77856 35.77856-35.77856c19.72224 0 35.77856 16.05632 35.77856 35.77856s-16.05632 35.77856-35.77856 35.77856z m0-50.23744c-7.96672 0-14.45888 6.49216-14.45888 14.45888 0 7.96672 6.49216 14.45888 14.45888 14.45888 7.96672 0 14.45888-6.49216 14.45888-14.45888 0-7.96672-6.49216-14.45888-14.45888-14.45888zM511.63136 920.59648c-50.09408 0-97.81248-21.58592-130.94912-59.22816-3.8912-4.42368-3.46112-11.1616 0.96256-15.03232 4.42368-3.8912 11.1616-3.46112 15.03232 0.96256 29.0816 33.03424 70.9632 51.99872 114.93376 51.99872 84.39808 0 153.04704-68.64896 153.04704-153.04704s-68.64896-153.04704-153.04704-153.04704-153.04704 68.64896-153.04704 153.04704c0 12.67712 1.55648 25.27232 4.608 37.43744 1.4336 5.71392-2.02752 11.50976-7.74144 12.94336-5.69344 1.45408-11.50976-2.02752-12.92288-7.74144a175.29856 175.29856 0 0 1-5.26336-42.63936c0-96.1536 78.21312-174.36672 174.36672-174.36672s174.36672 78.21312 174.36672 174.36672-78.21312 174.34624-174.34624 174.34624z" p-id="1857"></path><path d="M511.63136 385.90464m-272.83456 0a272.83456 272.83456 0 1 0 545.66912 0 272.83456 272.83456 0 1 0-545.66912 0Z" fill="#D6948C" p-id="1858"></path><path d="M322.56 385.90464a269.63968 230.95296 90 1 0 461.90592 0 269.63968 230.95296 90 1 0-461.90592 0Z" fill="#E8B5B1" p-id="1859"></path><path d="M511.63136 669.3888c-156.32384 0-283.50464-127.1808-283.50464-283.50464 0-48.04608 12.10368-95.0272 35.14368-136.76544-29.92128-9.40032-51.56864-37.60128-51.56864-70.08256 0-40.48896 32.95232-73.44128 73.44128-73.44128 30.3104 0 56.75008 18.30912 67.87072 45.30176C399.91296 119.11168 454.43072 102.4 511.63136 102.4c53.37088 0 104.89856 14.76608 149.8112 42.8032 12.47232-23.8592 37.60128-39.58784 65.16736-39.58784 40.48896 0 73.44128 32.95232 73.44128 73.44128 0 28.8768-16.75264 54.51776-42.0864 66.4576 24.35072 42.65984 37.1712 90.91072 37.1712 140.41088 0 47.14496-11.79648 93.81888-34.14016 134.98368a10.63936 10.63936 0 0 1-14.4384 4.28032 10.63936 10.63936 0 0 1-4.28032-14.4384c20.64384-38.07232 31.55968-81.22368 31.55968-124.8256 0-49.8688-14.06976-98.38592-40.67328-140.30848l-7.8848-12.41088 14.25408-3.62496c23.10144-5.87776 39.2192-26.64448 39.2192-50.52416 0-28.75392-23.38816-52.1216-52.1216-52.1216-22.91712 0-43.47904 15.33952-49.9712 37.31456l-4.17792 14.09024-12.10368-8.35584c-43.84768-30.26944-95.27296-46.26432-148.72576-46.26432-57.6512 0-112.35328 18.37056-158.208 53.10464l-13.96736 10.58816-2.9696-17.26464c-4.3008-25.04704-25.9072-43.2128-51.34336-43.2128-28.73344 0-52.1216 23.38816-52.1216 52.1216 0 26.97216 21.03296 49.78688 47.88224 51.93728l17.46944 1.39264-9.27744 14.86848c-25.92768 41.53344-39.64928 89.47712-39.64928 138.6496 0 144.56832 117.61664 262.18496 262.18496 262.18496 70.63552 0 136.88832-27.66848 186.53184-77.94688a10.668032 10.668032 0 0 1 15.07328-0.08192 10.668032 10.668032 0 0 1 0.08192 15.07328c-53.69856 54.33344-125.3376 84.25472-201.70752 84.25472z" p-id="1860"></path><path d="M595.94752 429.60896a48.27136 34.14016 0 1 0 96.54272 0 48.27136 34.14016 0 1 0-96.54272 0Z" fill="#FFB5C0" p-id="1861"></path><path d="M333.80352 433.17248a48.27136 34.14016 0 1 0 96.54272 0 48.27136 34.14016 0 1 0-96.54272 0Z" fill="#FFB5C0" p-id="1862"></path><path d="M511.95904 464.73216m-93.77792 0a93.77792 93.77792 0 1 0 187.55584 0 93.77792 93.77792 0 1 0-187.55584 0Z" fill="#F2D4D3" p-id="1863"></path><path d="M511.95904 569.15968c-57.58976 0-104.42752-46.85824-104.42752-104.42752 0-57.58976 46.85824-104.42752 104.42752-104.42752 57.58976 0 104.42752 46.85824 104.42752 104.42752 0 57.58976-46.83776 104.42752-104.42752 104.42752z m0-187.55584c-45.83424 0-83.12832 37.29408-83.12832 83.12832 0 45.83424 37.29408 83.12832 83.12832 83.12832 45.83424 0 83.12832-37.29408 83.12832-83.12832 0-45.83424-37.29408-83.12832-83.12832-83.12832z" p-id="1864"></path><path d="M726.60992 179.03616m-25.10848 0a25.10848 25.10848 0 1 0 50.21696 0 25.10848 25.10848 0 1 0-50.21696 0Z" fill="#FF8E9E" p-id="1865"></path><path d="M726.60992 214.81472c-19.72224 0-35.77856-16.05632-35.77856-35.77856s16.05632-35.77856 35.77856-35.77856 35.77856 16.05632 35.77856 35.77856-16.05632 35.77856-35.77856 35.77856z m0-50.23744c-7.96672 0-14.45888 6.49216-14.45888 14.45888 0 7.96672 6.49216 14.45888 14.45888 14.45888s14.45888-6.49216 14.45888-14.45888c0-7.96672-6.49216-14.45888-14.45888-14.45888z" p-id="1866"></path><path d="M408.14592 409.68192c-5.87776 0-10.6496-4.77184-10.6496-10.6496v-19.16928c0-5.87776 4.77184-10.6496 10.6496-10.6496s10.6496 4.77184 10.6496 10.6496v19.16928c0.02048 5.87776-4.75136 10.6496-10.6496 10.6496zM614.5024 409.68192c-5.87776 0-10.6496-4.77184-10.6496-10.6496v-19.16928c0-5.87776 4.77184-10.6496 10.6496-10.6496s10.6496 4.77184 10.6496 10.6496v19.16928c0.02048 5.87776-4.75136 10.6496-10.6496 10.6496z" p-id="1867"></path><path d="M501.32992 448.4096a14.082048 14.082048 0 0 0 20.5824 0l11.85792-12.67712c8.41728-8.99072 2.02752-23.69536-10.28096-23.69536h-23.71584c-12.30848 0-18.69824 14.70464-10.28096 23.69536l11.83744 12.67712z" fill="#FF8E9E" p-id="1868"></path><path d="M511.63136 463.52384c-6.81984 0-13.4144-2.8672-18.08384-7.84384l-11.85792-12.67712c-6.84032-7.31136-8.6016-17.55136-4.608-26.74688s12.67712-14.88896 22.69184-14.88896h23.69536c10.01472 0 18.69824 5.69344 22.69184 14.88896 3.9936 9.17504 2.21184 19.43552-4.608 26.74688l-11.85792 12.67712a24.748032 24.748032 0 0 1-18.06336 7.84384z m-11.85792-40.83712c-1.86368 0-2.72384 1.1264-3.13344 2.06848s-0.63488 2.33472 0.63488 3.70688l11.85792 12.67712c0.88064 0.94208 1.9456 1.08544 2.49856 1.08544s1.61792-0.14336 2.49856-1.08544l11.85792-12.67712c1.26976-1.35168 1.04448-2.7648 0.63488-3.70688-0.4096-0.94208-1.29024-2.06848-3.13344-2.06848h-23.71584z" p-id="1869"></path><path d="M494.12096 490.7008c-15.52384 0-28.16-12.63616-28.16-28.16 0-5.87776 4.77184-10.6496 10.6496-10.6496s10.6496 4.77184 10.6496 10.6496c0 3.76832 3.072 6.84032 6.84032 6.84032 3.76832 0 6.84032-3.072 6.84032-6.84032 0-5.87776 4.77184-10.6496 10.6496-10.6496s10.6496 4.77184 10.6496 10.6496c0.04096 15.52384-12.5952 28.16-28.11904 28.16z" p-id="1870"></path><path d="M529.14176 490.7008c-15.52384 0-28.16-12.63616-28.16-28.16 0-5.87776 4.77184-10.6496 10.6496-10.6496s10.6496 4.77184 10.6496 10.6496c0 3.76832 3.072 6.84032 6.84032 6.84032s6.84032-3.072 6.84032-6.84032c0-5.87776 4.77184-10.6496 10.6496-10.6496s10.6496 4.77184 10.6496 10.6496c0.04096 15.52384-12.5952 28.16-28.11904 28.16z" p-id="1871"></path></svg>