<?xml version="1.0" standalone="no"?><!DOCTYPE svg PUBLIC "-//W3C//DTD SVG 1.1//EN" "http://www.w3.org/Graphics/SVG/1.1/DTD/svg11.dtd"><svg t="1665975466827" class="icon" viewBox="0 0 1024 1024" version="1.1" xmlns="http://www.w3.org/2000/svg" p-id="1570" xmlns:xlink="http://www.w3.org/1999/xlink" width="200" height="200"><path d="M726.2208 297.0624h-393.216c-28.2624 0-51.2-22.9376-51.2-51.2V135.7312c0-28.2624 22.9376-51.2 51.2-51.2h393.216c28.2624 0 51.2 22.9376 51.2 51.2v110.1312c0 28.2624-22.8864 51.2-51.2 51.2z" fill="#8686FC" p-id="1571"></path><path d="M657.0496 84.5312s45.7216 8.6016 45.7216 52.4288v109.9264s0 47.0016-49.5616 47.0016c55.2448 0 84.3776-9.2672 84.3776-46.592V117.248s-13.1584-38.144-80.5376-32.7168z" fill="#7268F3" p-id="1572"></path><path d="M691.4048 307.3024H298.24c-33.8944 0-61.44-27.5456-61.44-61.44V135.7312c0-33.8944 27.5456-61.44 61.44-61.44h393.1648c33.8944 0 61.44 27.5456 61.44 61.44v110.1312c0 33.8944-27.5456 61.44-61.44 61.44zM298.24 94.7712c-22.5792 0-40.96 18.3808-40.96 40.96v110.1312c0 22.5792 18.3808 40.96 40.96 40.96h393.1648c22.5792 0 40.96-18.3808 40.96-40.96V135.7312c0-22.5792-18.3808-40.96-40.96-40.96H298.24z" fill="#010101" p-id="1573"></path><path d="M921.088 223.6928h-78.8992l0.4608 66.9696c0.3072 42.752-35.4304 77.568-79.616 77.568H317.1328c-44.1856 0-79.9232-34.816-79.616-77.568l0.4608-66.9696H156.2112c-27.4944 0-49.7664 21.5552-49.7664 48.1792v301.824h864.4096V271.8208c0-26.5728-22.272-48.128-49.7664-48.128z" fill="#8686FC" p-id="1574"></path><path d="M869.1712 223.6928s22.2208 5.376 22.2208 31.4368v257.2288s6.8608 36.3008-62.3104 36.3008h97.9456V223.6928h-57.856z" fill="#7268F3" p-id="1575"></path><path d="M62.6176 389.12c-5.632 0-10.24-4.608-10.24-10.24v-46.08c0-5.632 4.608-10.24 10.24-10.24s10.24 4.608 10.24 10.24v46.08c0 5.632-4.608 10.24-10.24 10.24z" fill="#010101" p-id="1576"></path><path d="M927.0272 562.6368H62.6176c-5.632 0-10.24-4.608-10.24-10.24V434.944c0-5.632 4.608-10.24 10.24-10.24s10.24 4.608 10.24 10.24v107.2128h843.9296v-301.568c0-21.8112-17.7152-39.5264-39.5264-39.5264h-68.608l0.3584 58.88c0.1536 24.1152-9.1136 46.7968-26.112 63.9488a89.25696 89.25696 0 0 1-63.744 26.5216H273.3056c-24.1152 0-46.7456-9.4208-63.744-26.5216a89.29792 89.29792 0 0 1-26.112-63.9488l0.3584-58.88H112.384c-21.8112 0-39.5264 17.7152-39.5264 39.5264v26.624c0 5.632-4.608 10.24-10.24 10.24s-10.24-4.608-10.24-10.24v-26.624c0-33.0752 26.9312-60.0064 60.0064-60.0064h81.7664a10.21952 10.21952 0 0 1 10.24 10.2912l-0.4608 69.1712c-0.1024 18.6368 7.0656 36.1472 20.1728 49.3568 13.1072 13.2096 30.6176 20.48 49.2032 20.48h445.8496c18.6368 0 36.096-7.2704 49.2032-20.48 13.1072-13.2096 20.2752-30.72 20.1728-49.3568l-0.4608-69.1712c0-2.7136 1.0752-5.3248 2.9696-7.2704 1.9456-1.9456 4.5568-3.0208 7.2704-3.0208h78.8992c33.0752 0 60.0064 26.9312 60.0064 60.0064v311.808c0.0512 5.632-4.5568 10.24-10.1888 10.24z" fill="#010101" p-id="1577"></path><path d="M281.856 751.7184h486.7584v212.5312H281.856z" fill="#FCD272" p-id="1578"></path><path d="M708.096 751.7184h30.5152v184.5248h-30.5152z" fill="#EFBD5B" p-id="1579"></path><path d="M743.0656 952.576H247.5008c-5.632 0-10.24-4.608-10.24-10.24v-212.5312c0-5.632 4.608-10.24 10.24-10.24h495.5648c5.632 0 10.24 4.608 10.24 10.24v212.5312c0 5.6832-4.5568 10.24-10.24 10.24z m-485.3248-20.48h475.0848v-192.0512H257.7408v192.0512z" fill="#010101" p-id="1580"></path><path d="M921.088 838.4512h-78.8992l0.9728-149.2992H237.0048l0.9728 149.2992H156.2112c-27.4944 0-49.7664-22.272-49.7664-49.7664v-192.3584h864.4096v192.3584c0 27.4944-22.272 49.7664-49.7664 49.7664z" fill="#8686FC" p-id="1581"></path><path d="M883.968 596.3264v206.0288s2.4064 25.2416-33.3824 31.4368c45.4656-1.3824 79.5648-6.1952 79.104-61.4912-0.4608-55.296 0-175.9744 0-175.9744h-45.7216z" fill="#7268F3" p-id="1582"></path><path d="M877.2608 846.336h-78.8992a10.21952 10.21952 0 0 1-10.24-10.2912l0.8704-139.008H203.4688l0.8704 139.008c0 2.7136-1.0752 5.3248-2.9696 7.2704-1.9456 1.9456-4.5568 3.0208-7.2704 3.0208H112.384c-33.0752 0-60.0064-26.9312-60.0064-60.0064V593.92c0-5.632 4.608-10.24 10.24-10.24h864.4096c5.632 0 10.24 4.608 10.24 10.24v192.3584c0 33.1264-26.9312 60.0576-60.0064 60.0576z m-68.608-20.48h68.608c21.8112 0 39.5264-17.7152 39.5264-39.5264V604.16H72.8576v182.1184c0 21.8112 17.7152 39.5264 39.5264 39.5264H183.808l-0.8704-139.008c0-2.7136 1.0752-5.3248 2.9696-7.2704 1.9456-1.9456 4.5568-3.0208 7.2704-3.0208h606.1568a10.21952 10.21952 0 0 1 10.24 10.2912l-0.9216 139.0592z" fill="#010101" p-id="1583"></path><path d="M895.1296 515.6352H787.456c-8.0384 0-14.5408-6.5024-14.5408-14.5408v-31.6928c0-19.0464 15.4112-34.4576 34.4576-34.4576h68.6592a19.0464 19.0464 0 0 1 19.0464 19.0464v61.6448z" fill="#7268F3" p-id="1584"></path><path d="M782.848 445.1328h92.4672v52.1216H782.848z" fill="#5DECFD" p-id="1585"></path><path d="M875.3152 507.4432H782.848c-5.632 0-10.24-4.608-10.24-10.24V445.1328c0-5.632 4.608-10.24 10.24-10.24h92.4672c5.632 0 10.24 4.608 10.24 10.24v52.1216c0 5.632-4.608 10.1888-10.24 10.1888z m-82.2272-20.48h71.9872v-31.6416H793.088v31.6416z" fill="#010101" p-id="1586"></path><path d="M746.9056 515.6352h-46.08c-8.96 0-16.2816-7.2704-16.2816-16.2816v-49.5104c0-8.2432 6.656-14.8992 14.8992-14.8992h42.752c11.5712 0 20.9408 9.3696 20.9408 20.9408v43.4688c0 9.0112-7.2704 16.2816-16.2304 16.2816z" fill="#7268F3" p-id="1587"></path><path d="M694.4768 445.1328h51.0464v52.1216h-51.0464z" fill="#5DECFD" p-id="1588"></path><path d="M745.5232 507.4432h-51.0464c-5.632 0-10.24-4.608-10.24-10.24V445.1328c0-5.632 4.608-10.24 10.24-10.24h51.0464c5.632 0 10.24 4.608 10.24 10.24v52.1216c0 5.632-4.608 10.1888-10.24 10.1888z m-40.8064-20.48h30.5664v-31.6416h-30.5664v31.6416zM693.8112 807.3216H296.8064c-5.632 0-10.24-4.608-10.24-10.24s4.608-10.24 10.24-10.24h397.0048c5.632 0 10.24 4.608 10.24 10.24s-4.608 10.24-10.24 10.24zM693.8112 885.6576H296.8064c-5.632 0-10.24-4.608-10.24-10.24s4.608-10.24 10.24-10.24h397.0048c5.632 0 10.24 4.608 10.24 10.24s-4.608 10.24-10.24 10.24z" fill="#010101" p-id="1589"></path><path d="M442.88 126.9248h-26.7264c-5.632 0-10.24-4.608-10.24-10.24s4.608-10.24 10.24-10.24h26.7264a10.24 10.24 0 1 1 0 20.48zM311.5008 159.2832c-5.632 0-10.24-4.608-10.24-10.24v-11.8784c0-16.9472 13.7728-30.72 30.72-30.72h54.272c5.632 0 10.24 4.608 10.24 10.24s-4.608 10.24-10.24 10.24h-54.272c-5.632 0-10.24 4.608-10.24 10.24v11.8784a10.24 10.24 0 0 1-10.24 10.24zM132.096 408.5248c-5.632 0-10.24-4.608-10.24-10.24v-7.7824c0-1.0752 0.1536-2.048 0.4608-3.0208l-0.4608-0.1024c0-5.632 4.608-10.24 10.24-10.24s10.24 4.608 10.24 10.24v10.9056a10.24 10.24 0 0 1-10.24 10.24zM132.096 353.0752c-5.632 0-10.24-4.608-10.24-10.24V293.888c0-20.3776 5.5296-35.584 16.3328-45.1584 13.1584-11.6224 28.7232-10.0352 30.464-9.8304 5.632 0.7168 9.5744 5.8368 8.9088 11.4176a10.28096 10.28096 0 0 1-11.3152 8.9088c-0.512-0.0512-8.3968-0.6656-14.6432 5.0176-6.0416 5.4784-9.216 15.7184-9.216 29.6448v48.9472c-0.0512 5.632-4.608 10.24-10.2912 10.24zM270.336 637.696h-28.928c-5.632 0-10.24-4.608-10.24-10.24s4.608-10.24 10.24-10.24h28.928a10.24 10.24 0 1 1 0 20.48zM132.096 707.2256c-5.632 0-10.24-4.608-10.24-10.24v-38.6048c0-22.6816 18.432-41.1136 41.1136-41.1136h40.448c5.632 0 10.24 4.608 10.24 10.24s-4.608 10.24-10.24 10.24h-40.448c-11.3664 0-20.6336 9.2672-20.6336 20.6336v38.6048a10.24 10.24 0 0 1-10.24 10.24z" fill="#FFFFFF" p-id="1590"></path></svg>