<?xml version="1.0" standalone="no"?><!DOCTYPE svg PUBLIC "-//W3C//DTD SVG 1.1//EN" "http://www.w3.org/Graphics/SVG/1.1/DTD/svg11.dtd"><svg t="1665992007477" class="icon" viewBox="0 0 1024 1024" version="1.1" xmlns="http://www.w3.org/2000/svg" p-id="2030" xmlns:xlink="http://www.w3.org/1999/xlink" width="200" height="200"><path d="M247.52128 207.79008h569.4464v21.27872H247.52128zM238.16192 369.82784h569.4464v21.27872H238.16192zM228.80256 531.84512h569.4464v21.27872H228.80256z" p-id="2031"></path><path d="M242.33984 850.06336H202.42432c-20.60288 0-37.29408-16.6912-37.29408-37.29408V150.34368c0-20.60288 16.6912-37.29408 37.29408-37.29408h39.91552c20.60288 0 37.29408 16.6912 37.29408 37.29408v662.44608c0 20.5824-16.6912 37.2736-37.29408 37.2736z" fill="#FF8F71" p-id="2032"></path><path d="M222.37184 113.02912c-31.62112 0-57.26208 25.64096-57.26208 57.26208v221.184c0 31.62112 25.64096 57.26208 57.26208 57.26208 31.62112 0 57.26208-25.64096 57.26208-57.26208v-221.184c0-31.62112-25.64096-57.26208-57.26208-57.26208z" fill="#FFB39D" p-id="2033"></path><path d="M222.37184 860.71296c-37.43744 0-67.8912-30.45376-67.8912-67.8912v-214.6304c0-5.87776 4.77184-10.62912 10.62912-10.62912 5.87776 0 10.62912 4.77184 10.62912 10.62912v214.6304c0 25.7024 20.91008 46.61248 46.61248 46.61248s46.61248-20.91008 46.61248-46.61248V170.2912c0-25.7024-20.91008-46.61248-46.61248-46.61248S175.75936 144.5888 175.75936 170.2912v302.26432c0 5.87776-4.77184 10.62912-10.62912 10.62912-5.87776 0-10.62912-4.77184-10.62912-10.62912V170.2912C154.48064 132.85376 184.9344 102.4 222.37184 102.4s67.8912 30.45376 67.8912 67.8912v622.53056c0 37.43744-30.45376 67.8912-67.8912 67.8912z" p-id="2034"></path><path d="M856.22784 258.80576v534.016c0 31.62112-25.64096 57.26208-57.26208 57.26208-31.62112 0-57.26208-25.64096-57.26208-57.26208V170.2912c0-31.62112 25.64096-57.26208 57.26208-57.26208 31.62112 0 57.26208 25.64096 57.26208 57.26208v29.83936" fill="#FFB39D" p-id="2035"></path><path d="M798.98624 860.71296c-37.43744 0-67.8912-30.45376-67.8912-67.8912V170.2912c0-37.43744 30.45376-67.8912 67.8912-67.8912s67.8912 30.45376 67.8912 67.8912v29.83936c0 5.87776-4.77184 10.62912-10.62912 10.62912-5.87776 0-10.62912-4.77184-10.62912-10.62912V170.2912c0-25.7024-20.91008-46.61248-46.61248-46.61248s-46.61248 20.91008-46.61248 46.61248v622.53056c0 25.7024 20.91008 46.61248 46.61248 46.61248s46.61248-20.91008 46.61248-46.61248V258.80576c0-5.87776 4.77184-10.62912 10.62912-10.62912 5.87776 0 10.62912 4.77184 10.62912 10.62912v534.016c0 37.43744-30.45376 67.8912-67.8912 67.8912z" p-id="2036"></path><path d="M897.24928 910.97088H126.75072c-38.58432 0-69.85728-31.27296-69.85728-69.85728v-74.752c0-38.58432 31.27296-69.85728 69.85728-69.85728H897.2288c38.58432 0 69.85728 31.27296 69.85728 69.85728v74.752c0 38.58432-31.27296 69.85728-69.8368 69.85728z" fill="#FF8F71" p-id="2037"></path><path d="M897.24928 910.97088H519.96672c-38.58432 0-69.85728-31.27296-69.85728-69.85728v-74.752c0-38.58432 31.27296-69.85728 69.85728-69.85728h377.28256c38.58432 0 69.85728 31.27296 69.85728 69.85728v74.752c-0.02048 38.58432-31.29344 69.85728-69.85728 69.85728z" fill="#FFB39D" p-id="2038"></path><path d="M876.38016 921.6H147.61984c-55.88992 0-101.35552-45.4656-101.35552-101.35552v-33.01376c0-55.88992 45.4656-101.35552 101.35552-101.35552h728.76032c55.88992 0 101.35552 45.4656 101.35552 101.35552v33.01376c0 55.88992-45.4656 101.35552-101.35552 101.35552zM147.61984 707.15392c-44.15488 0-80.0768 35.92192-80.0768 80.0768v33.01376c0 44.15488 35.92192 80.0768 80.0768 80.0768h728.76032c44.15488 0 80.0768-35.92192 80.0768-80.0768v-33.01376c0-44.15488-35.92192-80.0768-80.0768-80.0768H147.61984z" p-id="2039"></path><path d="M347.25888 211.6608m-47.16544 0a47.16544 47.16544 0 1 0 94.33088 0 47.16544 47.16544 0 1 0-94.33088 0Z" fill="#EA5B70" p-id="2040"></path><path d="M347.25888 269.45536c-31.86688 0-57.79456-25.92768-57.79456-57.79456 0-31.86688 25.92768-57.79456 57.79456-57.79456 31.86688 0 57.79456 25.92768 57.79456 57.79456 0 31.86688-25.92768 57.79456-57.79456 57.79456z m0-94.3104c-20.13184 0-36.51584 16.384-36.51584 36.51584 0 20.13184 16.384 36.51584 36.51584 36.51584 20.13184 0 36.51584-16.384 36.51584-36.51584 0-20.15232-16.36352-36.51584-36.51584-36.51584z" p-id="2041"></path><path d="M478.6176 211.6608m-47.16544 0a47.16544 47.16544 0 1 0 94.33088 0 47.16544 47.16544 0 1 0-94.33088 0Z" fill="#EA5B70" p-id="2042"></path><path d="M478.6176 269.45536c-31.86688 0-57.79456-25.92768-57.79456-57.79456 0-31.86688 25.92768-57.79456 57.79456-57.79456 31.86688 0 57.79456 25.92768 57.79456 57.79456 0 31.86688-25.92768 57.79456-57.79456 57.79456z m0-94.3104c-20.13184 0-36.51584 16.384-36.51584 36.51584 0 20.13184 16.384 36.51584 36.51584 36.51584 20.13184 0 36.51584-16.384 36.51584-36.51584 0-20.15232-16.384-36.51584-36.51584-36.51584z" p-id="2043"></path><path d="M432.35328 379.53536m-47.16544 0a47.16544 47.16544 0 1 0 94.33088 0 47.16544 47.16544 0 1 0-94.33088 0Z" fill="#55DAFE" p-id="2044"></path><path d="M432.35328 437.32992c-31.86688 0-57.79456-25.92768-57.79456-57.79456s25.92768-57.79456 57.79456-57.79456c31.86688 0 57.79456 25.92768 57.79456 57.79456s-25.92768 57.79456-57.79456 57.79456z m0-94.3104c-20.13184 0-36.51584 16.384-36.51584 36.51584s16.384 36.51584 36.51584 36.51584c20.13184 0 36.51584-16.384 36.51584-36.51584s-16.384-36.51584-36.51584-36.51584z" p-id="2045"></path><path d="M613.82656 379.53536m-47.16544 0a47.16544 47.16544 0 1 0 94.33088 0 47.16544 47.16544 0 1 0-94.33088 0Z" fill="#55DAFE" p-id="2046"></path><path d="M613.82656 437.32992c-31.86688 0-57.79456-25.92768-57.79456-57.79456s25.92768-57.79456 57.79456-57.79456c31.86688 0 57.79456 25.92768 57.79456 57.79456s-25.92768 57.79456-57.79456 57.79456z m0-94.3104c-20.13184 0-36.51584 16.384-36.51584 36.51584s16.384 36.51584 36.51584 36.51584c20.13184 0 36.51584-16.384 36.51584-36.51584s-16.384-36.51584-36.51584-36.51584z" p-id="2047"></path><path d="M685.89568 542.47424m-47.16544 0a47.16544 47.16544 0 1 0 94.33088 0 47.16544 47.16544 0 1 0-94.33088 0Z" fill="#FFB357" p-id="2048"></path><path d="M685.89568 600.2688c-31.86688 0-57.79456-25.92768-57.79456-57.79456 0-31.86688 25.92768-57.79456 57.79456-57.79456s57.79456 25.92768 57.79456 57.79456c0 31.86688-25.92768 57.79456-57.79456 57.79456z m0-94.3104c-20.13184 0-36.51584 16.384-36.51584 36.51584 0 20.13184 16.384 36.51584 36.51584 36.51584s36.51584-16.384 36.51584-36.51584c0-20.13184-16.384-36.51584-36.51584-36.51584z" p-id="2049"></path><path d="M591.58528 542.47424m-47.16544 0a47.16544 47.16544 0 1 0 94.33088 0 47.16544 47.16544 0 1 0-94.33088 0Z" fill="#FFB357" p-id="2050"></path><path d="M591.58528 600.2688c-31.86688 0-57.79456-25.92768-57.79456-57.79456 0-31.86688 25.92768-57.79456 57.79456-57.79456 31.86688 0 57.79456 25.92768 57.79456 57.79456 0 31.86688-25.92768 57.79456-57.79456 57.79456z m0-94.3104c-20.13184 0-36.51584 16.384-36.51584 36.51584 0 20.13184 16.384 36.51584 36.51584 36.51584 20.13184 0 36.51584-16.384 36.51584-36.51584 0-20.13184-16.384-36.51584-36.51584-36.51584z" p-id="2051"></path><path d="M497.27488 542.47424m-47.16544 0a47.16544 47.16544 0 1 0 94.33088 0 47.16544 47.16544 0 1 0-94.33088 0Z" fill="#FFB357" p-id="2052"></path><path d="M497.27488 600.2688c-31.86688 0-57.79456-25.92768-57.79456-57.79456 0-31.86688 25.92768-57.79456 57.79456-57.79456 31.86688 0 57.79456 25.92768 57.79456 57.79456 0 31.86688-25.92768 57.79456-57.79456 57.79456z m0-94.3104c-20.13184 0-36.51584 16.384-36.51584 36.51584 0 20.13184 16.384 36.51584 36.51584 36.51584 20.13184 0 36.51584-16.384 36.51584-36.51584 0-20.13184-16.384-36.51584-36.51584-36.51584z" p-id="2053"></path><path d="M338.04288 379.53536m-47.16544 0a47.16544 47.16544 0 1 0 94.33088 0 47.16544 47.16544 0 1 0-94.33088 0Z" fill="#55DAFE" p-id="2054"></path><path d="M338.0224 437.32992c-31.86688 0-57.79456-25.92768-57.79456-57.79456s25.92768-57.79456 57.79456-57.79456c31.86688 0 57.79456 25.92768 57.79456 57.79456s-25.9072 57.79456-57.79456 57.79456z m0-94.3104c-20.13184 0-36.51584 16.384-36.51584 36.51584s16.384 36.51584 36.51584 36.51584c20.13184 0 36.51584-16.384 36.51584-36.51584s-16.36352-36.51584-36.51584-36.51584z" p-id="2055"></path><path d="M653.33248 211.6608m-47.16544 0a47.16544 47.16544 0 1 0 94.33088 0 47.16544 47.16544 0 1 0-94.33088 0Z" fill="#EA5B70" p-id="2056"></path><path d="M653.33248 269.45536c-31.86688 0-57.79456-25.92768-57.79456-57.79456 0-31.86688 25.92768-57.79456 57.79456-57.79456 31.86688 0 57.79456 25.92768 57.79456 57.79456 0 31.86688-25.92768 57.79456-57.79456 57.79456z m0-94.3104c-20.13184 0-36.51584 16.384-36.51584 36.51584 0 20.13184 16.384 36.51584 36.51584 36.51584s36.51584-16.384 36.51584-36.51584c0-20.15232-16.384-36.51584-36.51584-36.51584z" p-id="2057"></path><path d="M337.28512 823.296a44.31872 34.42688 0 1 0 88.63744 0 44.31872 34.42688 0 1 0-88.63744 0Z" fill="#FFDBE0" p-id="2058"></path><path d="M390.41024 803.4304c-5.87776 0-10.62912-4.77184-10.62912-10.62912v-23.47008c0-5.87776 4.77184-10.62912 10.62912-10.62912s10.62912 4.77184 10.62912 10.62912v23.47008c0 5.85728-4.75136 10.62912-10.62912 10.62912z" p-id="2059"></path><path d="M571.78112 823.296a44.31872 34.42688 0 1 0 88.63744 0 44.31872 34.42688 0 1 0-88.63744 0Z" fill="#FFDBE0" p-id="2060"></path><path d="M594.78016 803.4304c-5.87776 0-10.62912-4.77184-10.62912-10.62912v-23.47008c0-5.87776 4.77184-10.62912 10.62912-10.62912 5.87776 0 10.62912 4.77184 10.62912 10.62912v23.47008c0.02048 5.85728-4.75136 10.62912-10.62912 10.62912z" p-id="2061"></path><path d="M471.20384 846.04928c-16.26112 0-29.4912-13.23008-29.4912-29.4912 0-5.87776 4.77184-10.62912 10.62912-10.62912s10.62912 4.77184 10.62912 10.62912c0 4.52608 3.6864 8.23296 8.23296 8.23296s8.23296-3.6864 8.23296-8.23296c0-5.87776 4.77184-10.62912 10.62912-10.62912s10.62912 4.77184 10.62912 10.62912c0 16.26112-13.23008 29.4912-29.4912 29.4912z" p-id="2062"></path><path d="M508.928 846.04928c-16.26112 0-29.4912-13.23008-29.4912-29.4912 0-5.87776 4.77184-10.62912 10.62912-10.62912s10.62912 4.77184 10.62912 10.62912c0 4.52608 3.6864 8.23296 8.23296 8.23296 4.52608 0 8.23296-3.6864 8.23296-8.23296 0-5.87776 4.77184-10.62912 10.62912-10.62912 5.87776 0 10.62912 4.77184 10.62912 10.62912 0 16.26112-13.23008 29.4912-29.4912 29.4912z" p-id="2063"></path></svg>