<svg xmlns="http://www.w3.org/2000/svg" xmlns:xlink="http://www.w3.org/1999/xlink" fill="none" version="1.1" width="1550" height="280" viewBox="0 0 1550 280"><defs><clipPath id="master_svg0_46_0013"><rect x="0" y="0" width="1550" height="280" rx="0"/></clipPath></defs><g clip-path="url(#master_svg0_46_0013)"><g><g><g><rect x="0" y="0" width="1550" height="280" rx="0" fill="#FFFFFF" fill-opacity="1"/></g><g><g><path d="M613.45,86.33003982543946C619.7532,86.31343982543945,624.8511,81.19323982543945,624.84,74.89003982543946C624.829,68.58689982543946,619.7133,63.484550475439455,613.41,63.49004745482945C607.10687,63.49556732543945,602.0000610352,68.60682982543945,602,74.91003982543945C602,81.22883982543945,607.13123,86.34653982543945,613.45,86.33003982543946Z" fill="#000000" fill-opacity="1"/></g><g><rect x="669.0900268554688" y="58.31999969482422" width="91.18000030517578" height="31.969999313354492" rx="0" fill="#675CE9" fill-opacity="1"/></g><g><rect x="705.5499877929688" y="90.2897834777832" width="25.420000076293945" height="146.75" rx="0" fill="#675CE9" fill-opacity="1"/></g><g><rect x="600.739990234375" y="107.11000442504883" width="25.420000076293945" height="130.3800048828125" rx="0" fill="#F76707" fill-opacity="1"/></g><g><rect x="804.3400268554688" y="58.31999969482422" width="30.979999542236328" height="31.969999313354492" rx="0" fill="#F76707" fill-opacity="1"/></g><g><rect x="788.6599731445312" y="90.2897834777832" width="22.450000762939453" height="67.44000244140625" rx="0" fill="#FF00FF" fill-opacity="1"/></g><g><rect x="772.5999755859375" y="157.7200050354004" width="23.139999389648438" height="79.30999755859375" rx="0" fill="#DC13A2" fill-opacity="1"/></g><g><rect x="829.760009765625" y="90.2897834777832" width="22.450000762939453" height="67.44000244140625" rx="0" fill="#F76707" fill-opacity="1"/></g><g><rect x="842.8499755859375" y="157.7200050354004" width="23.139999389648438" height="79.30999755859375" rx="0" fill="#ED1E79" fill-opacity="1"/></g><g><rect x="795.8200073242188" y="163.6599006652832" width="47.11000061035156" height="21.15999984741211" rx="0" fill="#000000" fill-opacity="1"/></g><g><path d="M529.4799243164063,153.67000015258787C529.4799243164063,134.73000015258788,515.4799243164063,119.34000015258789,498.2400243164062,119.34000015258789C483.5455243164063,119.8535351525879,471.09202431640625,130.3147001525879,468.0500243164063,144.7000001525879C465.00802431640625,130.3147001525879,452.55442431640626,119.8535351525879,437.8600243164062,119.34000015258789C420.65002431640625,119.34000015258789,406.60998535160627,134.73000015258788,406.60998535160627,153.67000015258787C406.58892821640626,164.6970001525879,411.60467431640626,175.12990015258788,420.23002431640623,182.0000001525879L468.1800243164063,223.4300001525879L516.2499243164062,182.0000001525879C524.8189243164063,175.1224001525879,529.7069243164062,164.6551001525879,529.4799243164063,153.67000015258787Z" fill="#ED1C24" fill-opacity="1"/></g><g><path d="M373.5099938964844,49.7400016784668L357.6499938964844,65.8900016784668L375.27999389648437,84.0700016784668L357.6499938964844,102.1300016784668L373.5099938964844,118.62000167846679L406.6999938964844,84.28000167846679L373.5099938964844,49.7400016784668Z" fill="#675CE9" fill-opacity="1"/></g><g><path d="M296.17002846679685,148.2101155090332C312.09522846679687,150.6870155090332,327.01282846679686,139.7842155090332,329.4883284667969,123.8587155090332C331.96372846679685,107.9332155090332,321.0595284667969,93.0166255090332,305.1338284667969,90.5426215090332C289.2081284667969,88.0686255090332,274.2925384667969,98.9742055090332,271.8200074667969,114.9001155090332C269.34811846679685,130.8219155090332,280.2488984667969,145.7338155090332,296.17002846679685,148.2101155090332Z" fill="#F76707" fill-opacity="1"/></g><g><path d="M300.8299951171875,158.9099006652832C279.0427951171875,159.2715036652832,261.6658935171875,177.2122006652832,262.0000001171875,198.9999006652832L261.6199951171875,198.9999006652832L261.6199951171875,226.5299006652832L339.70999511718753,226.5299006652832L339.70999511718753,198.9999006652832C340.0216951171875,177.2018006652832,322.6273951171875,159.2661476652832,300.8299951171875,158.9099006652832Z" fill="#675CE9" fill-opacity="1"/></g><g><path d="M300.6599865722656,42.5099983215332L263.5799865722656,80.8999983215332L300.8299865722656,119.3399983215332L338.0799865722656,80.8999983215332L300.6599865722656,42.5099983215332Z" fill="#27282C" fill-opacity="1"/></g><g><rect x="935.1799926757812" y="58.470001220703125" width="91.18000030517578" height="31.969999313354492" rx="0" fill="#9E005D" fill-opacity="1"/></g><g><rect x="935.1799926757812" y="134.28000259399414" width="91.18000030517578" height="31.969999313354492" rx="0" fill="#662D91" fill-opacity="1"/></g><g><rect x="935.1799926757812" y="204.0002326965332" width="91.18000030517578" height="31.969999313354492" rx="0" fill="#675CE9" fill-opacity="1"/></g><g><rect x="894.0800170898438" y="58.470001220703125" width="41.099998474121094" height="177.5" rx="0" fill="#675CE9" fill-opacity="1"/></g><g><rect x="1048.2099609375" y="166.32001113891602" width="32.5" height="69.72000122070312" rx="0" fill="#22B573" fill-opacity="1"/></g><g><rect x="1063.510009765625" y="106.7302131652832" width="27.6299991607666" height="59.599998474121094" rx="0" fill="#29ABE2" fill-opacity="1"/></g><g><rect x="1080.7099609375" y="58.3898811340332" width="32.880001068115234" height="48.33000183105469" rx="0" fill="#F7931E" fill-opacity="1"/></g><g><rect x="1101.6400146484375" y="106.7302131652832" width="22.760000228881836" height="59.599998474121094" rx="0" fill="#675CE9" fill-opacity="1"/></g><g><rect x="1115.4200439453125" y="166.32001113891602" width="30.670000076293945" height="69.72000122070312" rx="0" fill="#675CE9" fill-opacity="1"/></g><g><rect x="1140.4599609375" y="106.80000686645508" width="22.06999969482422" height="59.599998474121094" rx="0" fill="#C1272D" fill-opacity="1"/></g><g><rect x="1152.030029296875" y="58.470001220703125" width="32.880001068115234" height="48.33000183105469" rx="0" fill="#F15A24" fill-opacity="1"/></g><g><rect x="1172.9599609375" y="106.80000686645508" width="27.6299991607666" height="59.599998474121094" rx="0" fill="#F7931E" fill-opacity="1"/></g><g><rect x="1192.75" y="166.4001350402832" width="32.5" height="69.72000122070312" rx="0" fill="#00A99D" fill-opacity="1"/></g></g></g></g><g style="mix-blend-mode:passthrough"><g style="mix-blend-mode:passthrough"><rect x="1294" y="173" width="100" height="28" rx="0" fill="#EEEEEE" fill-opacity="1"/></g><g style="mix-blend-mode:passthrough" transform="matrix(0,1,-1,0,1495,-1221)"><rect x="1358" y="137" width="100" height="28" rx="0" fill="#EEEEEE" fill-opacity="1"/></g></g><g style="mix-blend-mode:passthrough" transform="matrix(0.6840136647224426,-0.7294692397117615,0.7294692397117615,0.6840136647224426,362.09001255297335,1048.2396483886405)"><g style="mix-blend-mode:passthrough"><rect x="1391" y="142.1689453125" width="100" height="28" rx="0" fill="#EEEEEE" fill-opacity="1"/></g><g style="mix-blend-mode:passthrough" transform="matrix(0,1,-1,0,1561.1689453125,-1348.8310546875)"><rect x="1455" y="106.1689453125" width="100" height="28" rx="0" fill="#EEEEEE" fill-opacity="1"/></g></g></g></svg>