<svg xmlns="http://www.w3.org/2000/svg" xmlns:xlink="http://www.w3.org/1999/xlink" fill="none" version="1.1" width="202" height="121" viewBox="0 0 202 121"><defs><clipPath id="master_svg0_148_273"><rect x="0" y="0" width="202" height="121" rx="0"/></clipPath></defs><g style="mix-blend-mode:passthrough" clip-path="url(#master_svg0_148_273)"><g style="mix-blend-mode:passthrough"><rect x="34" y="19" width="48" height="47" rx="0" fill="#40125B" fill-opacity="0.949999988079071"/></g><g style="mix-blend-mode:passthrough"><rect x="45" y="46" width="48" height="46" rx="0" fill="#40125B" fill-opacity="0.949999988079071"/></g><g style="mix-blend-mode:passthrough"><rect x="93" y="46" width="16" height="39" rx="0" fill="#40125B" fill-opacity="0.949999988079071"/></g><g style="mix-blend-mode:passthrough"><rect x="45" y="92" width="33" height="9" rx="0" fill="#40125B" fill-opacity="0.949999988079071"/></g><g style="mix-blend-mode:passthrough"><rect x="45" y="101" width="24" height="12" rx="0" fill="#40125B" fill-opacity="0.949999988079071"/></g><g style="mix-blend-mode:passthrough"><rect x="34" y="113" width="25" height="8" rx="0" fill="#40125B" fill-opacity="0.949999988079071"/></g><g style="mix-blend-mode:passthrough"><rect x="8" y="37" width="38" height="29" rx="0" fill="#40125B" fill-opacity="0.949999988079071"/></g><g style="mix-blend-mode:passthrough"><rect x="59" y="13" width="18" height="15" rx="0" fill="#40125B" fill-opacity="0.949999988079071"/></g><g style="mix-blend-mode:passthrough"><rect x="109" y="50" width="40" height="28" rx="0" fill="#40125B" fill-opacity="0.949999988079071"/></g><g style="mix-blend-mode:passthrough"><rect x="134" y="54" width="38" height="31" rx="0" fill="#40125B" fill-opacity="0.949999988079071"/></g><g style="mix-blend-mode:passthrough"><rect x="142" y="78" width="26" height="17" rx="0" fill="#40125B" fill-opacity="0.949999988079071"/></g><g style="mix-blend-mode:passthrough"><rect x="147" y="95" width="21" height="14" rx="0" fill="#40125B" fill-opacity="0.949999988079071"/></g><g style="mix-blend-mode:passthrough"><rect x="155" y="109" width="13" height="8" rx="0" fill="#40125B" fill-opacity="0.949999988079071"/></g><g style="mix-blend-mode:passthrough"><rect x="145" y="117" width="18" height="4" rx="0" fill="#40125B" fill-opacity="0.949999988079071"/></g><g style="mix-blend-mode:passthrough"><rect x="170" y="66" width="12" height="15" rx="0" fill="#40125B" fill-opacity="0.949999988079071"/></g><g style="mix-blend-mode:passthrough"><rect x="178" y="57" width="11" height="12" rx="0" fill="#40125B" fill-opacity="0.949999988079071"/></g><g style="mix-blend-mode:passthrough"><rect x="185" y="46" width="7" height="13" rx="0" fill="#40125B" fill-opacity="0.949999988079071"/></g><g style="mix-blend-mode:passthrough"><rect x="187" y="43" width="10" height="7" rx="0" fill="#40125B" fill-opacity="0.949999988079071"/></g></g></svg>