<svg xmlns="http://www.w3.org/2000/svg" xmlns:xlink="http://www.w3.org/1999/xlink" fill="none" version="1.1" width="97" height="150" viewBox="0 0 97 150"><defs><clipPath id="master_svg0_148_312"><rect x="0" y="0" width="97" height="150" rx="0"/></clipPath></defs><g style="mix-blend-mode:passthrough" clip-path="url(#master_svg0_148_312)"><g style="mix-blend-mode:passthrough"><rect x="6" y="4" width="14" height="145" rx="0" fill="#40125B" fill-opacity="0.949999988079071"/></g><g style="mix-blend-mode:passthrough"><rect x="80" y="4" width="14" height="145" rx="0" fill="#40125B" fill-opacity="0.949999988079071"/></g><g style="mix-blend-mode:passthrough"><rect x="20" y="26" width="60" height="11" rx="0" fill="#40125B" fill-opacity="0.949999988079071"/></g><g style="mix-blend-mode:passthrough"><rect x="20" y="138" width="60" height="11" rx="0" fill="#40125B" fill-opacity="0.949999988079071"/></g><g style="mix-blend-mode:passthrough"><rect x="20" y="76" width="60" height="11" rx="0" fill="#40125B" fill-opacity="0.949999988079071"/></g><g style="mix-blend-mode:passthrough"><rect x="33" y="37" width="3" height="39" rx="0" fill="#40125B" fill-opacity="0.949999988079071"/></g><g style="mix-blend-mode:passthrough"><rect x="48" y="37" width="3" height="39" rx="0" fill="#40125B" fill-opacity="0.949999988079071"/></g><g style="mix-blend-mode:passthrough"><rect x="65" y="37" width="3" height="39" rx="0" fill="#40125B" fill-opacity="0.949999988079071"/></g><g style="mix-blend-mode:passthrough"><rect x="33" y="87" width="3" height="51" rx="0" fill="#40125B" fill-opacity="0.949999988079071"/></g><g style="mix-blend-mode:passthrough"><rect x="48" y="87" width="3" height="51" rx="0" fill="#40125B" fill-opacity="0.949999988079071"/></g><g style="mix-blend-mode:passthrough"><rect x="65" y="87" width="3" height="51" rx="0" fill="#40125B" fill-opacity="0.949999988079071"/></g></g></svg>