<?xml version="1.0" standalone="no"?><!DOCTYPE svg PUBLIC "-//W3C//DTD SVG 1.1//EN" "http://www.w3.org/Graphics/SVG/1.1/DTD/svg11.dtd"><svg t="1665992000105" class="icon" viewBox="0 0 1024 1024" version="1.1" xmlns="http://www.w3.org/2000/svg" p-id="1660" xmlns:xlink="http://www.w3.org/1999/xlink" width="200" height="200"><path d="M122.38848 311.41888h793.02656v121.07776H122.38848z" fill="#E8B5B1" p-id="1661"></path><path d="M926.04416 443.12576H111.75936v-142.35648h814.30528v142.35648zM133.03808 421.84704h771.74784v-99.79904H133.03808v99.79904z" p-id="1662"></path><path d="M198.28736 630.86592H121.58976c-28.81536 0-52.18304-23.36768-52.18304-52.18304V165.21216c0-28.81536 23.36768-52.18304 52.18304-52.18304h76.67712c28.81536 0 52.18304 23.36768 52.18304 52.18304v413.45024c0.02048 28.83584-23.3472 52.20352-52.16256 52.20352z" fill="#FFB357" p-id="1663"></path><path d="M250.4704 558.1824V185.73312c0-30.28992-18.5344-56.23808-44.87168-67.1744-26.33728 10.91584-44.87168 36.864-44.87168 67.1744v372.44928c0 30.28992 18.5344 56.23808 44.87168 67.1744 26.33728-10.93632 44.87168-36.88448 44.87168-67.1744z" fill="#FFCE71" p-id="1664"></path><path d="M177.78688 641.49504H142.11072c-45.93664 0-83.33312-37.376-83.33312-83.33312v-253.952c0-5.87776 4.77184-10.62912 10.62912-10.62912s10.62912 4.77184 10.62912 10.62912v253.97248c0 34.22208 27.83232 62.0544 62.0544 62.0544H177.7664c34.22208 0 62.0544-27.83232 62.0544-62.0544V185.73312c0-34.22208-27.83232-62.0544-62.0544-62.0544H142.11072c-34.22208 0-62.0544 27.83232-62.0544 62.0544v20.52096c0 5.87776-4.77184 10.62912-10.62912 10.62912s-10.62912-4.77184-10.62912-10.62912V185.73312C58.7776 139.776 96.1536 102.4 142.11072 102.4h35.67616c45.93664 0 83.33312 37.376 83.33312 83.33312v372.44928c-0.02048 45.93664-37.39648 83.31264-83.33312 83.31264z" p-id="1665"></path><path d="M432.98816 579.072h-76.67712c-28.81536 0-52.18304-23.36768-52.18304-52.18304V217.00608c0-28.81536 23.36768-52.18304 52.18304-52.18304h76.67712c28.81536 0 52.18304 23.36768 52.18304 52.18304v309.90336c0 28.81536-23.36768 52.16256-52.18304 52.16256z" fill="#00CE8E" p-id="1666"></path><path d="M485.1712 506.38848V237.50656c0-30.28992-18.5344-56.23808-44.87168-67.1744-26.33728 10.91584-44.87168 36.864-44.87168 67.1744v268.88192c0 30.28992 18.5344 56.23808 44.87168 67.1744 26.33728-10.91584 44.87168-36.88448 44.87168-67.1744z" fill="#5FD9B3" p-id="1667"></path><path d="M417.40288 589.7216h-45.50656c-43.23328 0-78.41792-35.18464-78.41792-78.41792V232.59136c0-43.23328 35.16416-78.41792 78.41792-78.41792h45.50656c43.23328 0 78.41792 35.18464 78.41792 78.41792v278.71232c-0.02048 43.23328-35.18464 78.41792-78.41792 78.41792zM371.89632 175.45216c-31.49824 0-57.1392 25.62048-57.1392 57.1392v278.71232c0 31.49824 25.62048 57.1392 57.1392 57.1392h45.50656c31.49824 0 57.1392-25.62048 57.1392-57.1392V232.59136c0-31.49824-25.62048-57.1392-57.1392-57.1392h-45.50656z" p-id="1668"></path><path d="M667.68896 537.66144h-76.67712c-28.81536 0-52.18304-23.36768-52.18304-52.18304V258.43712c0-28.81536 23.36768-52.18304 52.18304-52.18304h76.67712c28.81536 0 52.18304 23.36768 52.18304 52.18304v227.04128c0 28.81536-23.36768 52.18304-52.18304 52.18304z" fill="#2ED0FC" p-id="1669"></path><path d="M719.872 464.97792V278.9376c0-30.84288-19.21024-57.15968-46.30528-67.72736-27.09504 10.56768-46.30528 36.88448-46.30528 67.72736v186.04032c0 30.84288 19.21024 57.15968 46.30528 67.72736 27.09504-10.56768 46.30528-36.90496 46.30528-67.72736z" fill="#7CE3FF" p-id="1670"></path><path d="M652.10368 548.29056h-45.50656c-43.23328 0-78.41792-35.16416-78.41792-78.39744V274.0224c0-43.23328 35.16416-78.39744 78.41792-78.39744h45.50656c43.23328 0 78.41792 35.16416 78.41792 78.39744v195.87072c0 43.23328-35.18464 78.39744-78.41792 78.39744zM606.59712 216.8832c-31.49824 0-57.1392 25.62048-57.1392 57.11872v195.87072c0 31.49824 25.62048 57.11872 57.1392 57.11872h45.50656c31.49824 0 57.1392-25.62048 57.1392-57.11872V274.0224c0-31.49824-25.62048-57.11872-57.1392-57.11872h-45.50656z" p-id="1671"></path><path d="M902.41024 504.50432h-76.67712c-28.81536 0-52.18304-23.36768-52.18304-52.18304v-160.768c0-28.81536 23.36768-52.18304 52.18304-52.18304h76.67712c28.81536 0 52.18304 23.36768 52.18304 52.18304v160.768c-0.02048 28.83584-23.36768 52.18304-52.18304 52.18304z" fill="#B28AE4" p-id="1672"></path><path d="M954.5728 431.8208v-119.74656c0-30.28992-18.5344-56.23808-44.87168-67.1744-26.33728 10.91584-44.87168 36.864-44.87168 67.1744v119.74656c0 30.28992 18.5344 56.23808 44.87168 67.1744 26.33728-10.91584 44.87168-36.88448 44.87168-67.1744z" fill="#C9AAF2" p-id="1673"></path><path d="M886.80448 515.15392h-45.50656c-43.23328 0-78.39744-35.16416-78.39744-78.39744v-129.57696c0-43.23328 35.16416-78.39744 78.39744-78.39744h45.50656c43.23328 0 78.41792 35.16416 78.41792 78.39744v129.57696c0 43.2128-35.18464 78.39744-78.41792 78.39744z m-45.50656-265.13408c-31.49824 0-57.11872 25.62048-57.11872 57.11872v129.57696c0 31.49824 25.62048 57.11872 57.11872 57.11872h45.50656c31.49824 0 57.1392-25.62048 57.1392-57.11872v-129.57696c0-31.49824-25.62048-57.11872-57.1392-57.11872h-45.50656z" p-id="1674"></path><path d="M784.36352 839.55712l-30.28992 52.46976c-10.46528 18.1248-33.64864 24.33024-51.75296 13.86496-18.1248-10.46528-24.33024-33.64864-13.86496-51.75296l126.21824-218.60352c10.46528-18.1248 33.64864-24.33024 51.75296-13.86496 18.1248 10.46528 24.33024 33.64864 13.86496 51.75296l-63.97952 110.7968" fill="#E8B5B1" p-id="1675"></path><path d="M721.18272 921.6c-8.23296 0-16.56832-2.08896-24.18688-6.49216-23.18336-13.37344-31.15008-43.13088-17.75616-66.29376l126.19776-218.60352c13.37344-23.18336 43.13088-31.15008 66.29376-17.75616 11.22304 6.47168 19.2512 16.93696 22.60992 29.47072 3.35872 12.51328 1.6384 25.6-4.85376 36.82304l-63.97952 110.7968a10.641408 10.641408 0 0 1-14.5408 3.8912 10.641408 10.641408 0 0 1-3.8912-14.5408l63.97952-110.7968a27.05408 27.05408 0 0 0 2.72384-20.6848 27.09504 27.09504 0 0 0-12.6976-16.54784c-13.0048-7.51616-29.71648-3.05152-37.23264 9.97376l-126.19776 218.60352c-7.51616 13.0048-3.03104 29.71648 9.97376 37.23264 13.02528 7.51616 29.71648 3.03104 37.23264-9.97376l30.28992-52.46976a10.641408 10.641408 0 0 1 14.5408-3.8912 10.641408 10.641408 0 0 1 3.8912 14.5408l-30.28992 52.46976c-8.99072 15.54432-25.33376 24.24832-42.10688 24.24832z" p-id="1676"></path><path d="M858.29632 635.6992m-88.43264 0a88.43264 88.43264 0 1 0 176.86528 0 88.43264 88.43264 0 1 0-176.86528 0Z" fill="#FF8E9E" p-id="1677"></path><path d="M841.68704 588.65664a87.98208 87.98208 0 0 1 42.7008-37.45792c-38.56384-11.93984-81.63328 3.82976-102.66624 40.28416-24.41216 42.2912-9.9328 96.37888 32.37888 120.81152 24.76032 14.29504 53.57568 15.23712 78.11072 5.07904-6.20544-1.92512-12.288-4.52608-18.1248-7.90528-42.33216-24.41216-56.81152-78.49984-32.39936-120.81152z" fill="#FF8E9E" p-id="1678"></path><path d="M902.53312 559.12448a89.300992 89.300992 0 0 0-18.1248-7.90528 87.98208 87.98208 0 0 0-42.7008 37.45792c-24.41216 42.2912-9.9328 96.37888 32.37888 120.81152 5.85728 3.3792 11.93984 5.98016 18.1248 7.90528A87.98208 87.98208 0 0 0 934.912 679.936c24.41216-42.31168 9.91232-96.39936-32.37888-120.81152z" fill="#FFB5C0" p-id="1679"></path><path d="M858.13248 734.76096c-16.7936 0-33.81248-4.25984-49.37728-13.25056-22.91712-13.23008-39.3216-34.59072-46.16192-60.14976s-3.33824-52.26496 9.89184-75.18208c27.29984-47.3088 88.02304-63.5904 135.33184-36.27008s63.56992 88.02304 36.27008 135.33184c-18.30912 31.744-51.69152 49.52064-85.95456 49.52064z m0.3072-176.8448c-26.91072 0-53.10464 13.94688-67.50208 38.89152-10.38336 18.00192-13.14816 38.95296-7.76192 59.02336s18.24768 36.84352 36.2496 47.24736c37.15072 21.44256 84.82816 8.66304 106.27072-28.4672 21.44256-37.15072 8.66304-84.82816-28.4672-106.27072a77.385728 77.385728 0 0 0-38.78912-10.42432z" p-id="1680"></path><path d="M353.73056 414.67904a40.22272 31.25248 0 1 0 80.44544 0 40.22272 31.25248 0 1 0-80.44544 0Z" fill="#FF8E9E" p-id="1681"></path><path d="M401.96096 394.05568c-5.87776 0-10.62912-4.77184-10.62912-10.62912v-21.2992c0-5.87776 4.77184-10.62912 10.62912-10.62912s10.62912 4.77184 10.62912 10.62912v21.2992c0 5.87776-4.75136 10.62912-10.62912 10.62912z" p-id="1682"></path><path d="M595.0464 407.57248a40.22272 31.25248 0 1 0 80.44544 0 40.22272 31.25248 0 1 0-80.44544 0Z" fill="#FF8E9E" p-id="1683"></path><path d="M615.936 394.05568c-5.87776 0-10.62912-4.77184-10.62912-10.62912v-21.2992c0-5.87776 4.77184-10.62912 10.62912-10.62912s10.62912 4.77184 10.62912 10.62912v21.2992c0.02048 5.87776-4.75136 10.62912-10.62912 10.62912z" p-id="1684"></path></svg>