<svg xmlns="http://www.w3.org/2000/svg" preserveAspectRatio="none meet" viewBox="0 0 311 152">
    <defs>
        <style>.cls-1{fill:none;stroke:#1a1a1a;stroke-miterlimit:10;}.cls-2{opacity:0.56;}.cls-3{opacity:0.74;}.cls-4{font-size:4px;font-family:MicrosoftYaHei-Bold, Microsoft YaHei;font-weight:700;}.cls-4,.cls-8{fill:#fff;}.cls-4,.cls-6{letter-spacing:0.02em;}.cls-5{letter-spacing:-0.05em;}.cls-6{font-size:2px;fill:#ccc;font-family:MicrosoftYaHei, Microsoft YaHei;}.cls-7{letter-spacing:-0.06em;}.cls-9{fill:#f2f2f2;}.cls-10{opacity:0.45;}.cls-11{fill:red;}.cls-12{fill:#b3b3b3;}</style>
    </defs>
    <g id="图层_2" data-name="图层 2">
        <g id="图层_1-2" data-name="图层 1">
            <rect class="cls-1" x="0.5" y="0.5" width="310" height="151" />
            <rect class="cls-2" x="149.5" y="66.5" width="4" height="18" rx="1.14" />
            <rect class="cls-2" x="157.5" y="66.5" width="4" height="18" rx="1.14" />
            <rect class="cls-3" x="1" y="1" width="309" height="15" />
            <text class="cls-4" transform="translate(11.58 8.81)">
                I
                <tspan class="cls-5" x="1.44" y="0">T</tspan>
                <tspan x="3.73" y="0">AEM团队的获奖情况！！！</tspan>
            </text>
            <text class="cls-6" transform="translate(11.59 11.95)">
                I
                <tspan class="cls-7" x="0.64" y="0">T</tspan>
                <tspan x="1.67" y="0">AEM实验室</tspan>
            </text>
            <path class="cls-8" d="M4.6,8.74,7.39,6a.36.36,0,0,0,0-.52l-.07-.08a.39.39,0,0,0-.53,0L3.68,8.47a.35.35,0,0,0-.11.27A.38.38,0,0,0,3.68,9l3.11,3.11a.39.39,0,0,0,.53,0l.07-.08a.36.36,0,0,0,0-.52Z" />
            <circle class="cls-9" cx="306.5" cy="8.5" r="1" />
            <circle class="cls-9" cx="303.5" cy="8.5" r="1" />
            <circle class="cls-9" cx="300.5" cy="8.5" r="1" />
            <rect class="cls-10" x="1" y="143.5" width="309" height="1" />
            <rect class="cls-11" x="1" y="143.5" width="74" height="1" />
            <rect class="cls-12" x="75" y="143.5" width="8.5" height="1" />
        </g>
    </g>
</svg>