<svg xmlns="http://www.w3.org/2000/svg" xmlns:xlink="http://www.w3.org/1999/xlink" fill="none" version="1.1" width="902.9267578125" height="487.8017578125" viewBox="0 0 902.9267578125 487.8017578125"><g style="mix-blend-mode:passthrough"><g style="mix-blend-mode:passthrough"><line x1="87.8046875" y1="411.5" x2="763.8046875" y2="411.5" fill-opacity="0" stroke-opacity="1" stroke="#D8D8D8" fill="none" stroke-width="1"/></g><g style="mix-blend-mode:passthrough"><rect x="83.8046875" y="412" width="676" height="16" rx="0" fill="#262626" fill-opacity="0.9100000262260437"/></g><g style="mix-blend-mode:passthrough"><path d="M902.927,368.40647703125Q897.759,375.36456703125,890.432,380.90360703125L890.142,381.12310703125L889.783,381.18510703125Q880.313,382.82250703125,871.463,386.78260703125Q863.578,390.31040703125,855.719,395.90550703125Q849.157,400.57730703125003,841.704,407.37900703125Q837.221,411.46960703125,828.602,419.99580703125Q822.647,425.88620703125,819.638,428.74730703125Q814.615,433.52470703125,810.437,437.04180703125Q799.962,445.86150703124997,790.178,450.57130703125L790.065,450.62550703125L789.945,450.66030703125Q771.709,455.95190703125,751.502,458.01050703125Q733.522,459.84230703125,712.874,459.20480703124997Q695.69,458.67440703125,674.156,456.30960703125Q661.253,454.89260703125,635.429,451.38020703125Q612.208,448.22190703125,600.622,446.89200703125Q581.324,444.67660703125,565.933,443.89290703125Q547.488,442.95350703125,531.424,443.85660703125Q513.4159999999999,444.86920703124997,497.15,448.24890703125L496.844,446.78030703125L497.226,448.23090703125Q438.336,463.72950703125,375.859,467.41700703125Q313.989,471.06920703125,252.744,462.90140703125L252.69,462.89420703125L252.636,462.88310703125Q229.495,458.06650703125,211.523,455.10570703125Q189.302,451.44480703125,169.983,449.73560703124997Q124.4414,445.70630703125,86.1088,451.91960703125L85.8688,450.43900703125L86.4233,451.83270703125Q78.8332,454.85250703125,76.0961,458.64430703125Q73.8398,461.77010703125,75.163,465.30000703125Q76.497,468.85820703125,81.1126,472.48420703125Q85.6637,476.05920703125,92.4316,478.94120703125Q99.2245,481.83520703125,106.7154,483.37620703125003Q114.5332,484.98420703125,121.5317,484.77820703125Q129.0072,484.55920703125,134.4318,482.28120703125Q140.22899999999998,479.84720703125,143.137,475.24720703125L144.405,476.04920703125003L142.934,475.75620703125Q144.515,467.80020703125,140.425,461.98650703124997Q136.815,456.85380703124997,128.6809,453.15130703125Q121.9796,450.10090703125,111.7855,447.87680703125Q105.819,446.57500703125,94.5837,444.85640703125Q88.13550000000001,443.87000703125,85.5831,443.37490703125L85.4259,443.34440703125L85.2787,443.28140703125Q80.41,441.19810703125,74.8948,440.46730703125Q69.62819999999999,439.76950703125,64.2551,440.36270703125Q59.0242,440.94020703125,54.2913,442.67120703125Q49.5762,444.39560703125,45.944900000000004,447.04930703125Q42.25471,449.74590703125,40.11752,453.09220703125Q37.90552,456.55550703125,37.56196,460.42070703125Q37.19338,464.56750703125,39.00186,468.96220703125Q40.988550000000004,473.79120703125,45.50782,478.69020703125L44.40527,479.70720703125L44.90893,478.29420703125Q51.506,480.64620703125,58.461600000000004,481.18420703125Q65.1527,481.70220703125,71.7655,480.51520703125Q78.2221,479.35620703125,84.12700000000001,476.66020703125Q89.9952,473.98020703125,94.84309999999999,470.00120703125003Q99.75030000000001,465.97360703125,103.2199,460.93290703125Q106.7926,455.74240703124997,108.5876,449.83800703125Q112.4928,436.99200703125,107.6215,422.87960703125L110.4573,421.90070703125Q113.0879,429.52170703125,113.2867,436.97570703125Q113.4759,444.07250703125,111.4579,450.71050703125Q109.5276,457.06010703125,105.6911,462.63390703125003Q101.9812,468.02320703124997,96.7464,472.32020703125Q91.5966,476.54720703124997,85.37299999999999,479.38920703125Q79.1242,482.24220703125,72.29560000000001,483.46820703125Q65.3045,484.72320703125,58.2301,484.17520703125Q50.8755,483.60620703125,43.90162,481.12020703125L43.55339,480.99620703125L43.30273,480.72420703125Q38.41885,475.42920703125003,36.227547,470.10420703125Q34.1403,465.03160703125,34.57374,460.15510703125Q34.98226,455.55900703125,37.58921,451.47730703125Q40.02969,447.65630703125,44.17485,444.62710703125003Q48.1481,441.72360703125,53.2608,439.85370703125Q58.3345,437.99810703125,63.9259,437.38080703125Q69.6611,436.74760703125,75.2889,437.49330703124997Q81.212,438.27810703125,86.4589,440.52330703125L85.8688,441.90230703125L86.15440000000001,440.42980703125Q88.6483,440.91350703125,95.0373,441.89090703125Q106.366,443.62380703125,112.4249,444.94580703125Q122.9315,447.23800703125,129.9238,450.42090703125Q149.277,459.23010703125,145.877,476.34120703125L145.822,476.61520703125L145.673,476.85020703124997Q142.261,482.24820703125,135.5933,485.04720703124997Q129.65359999999998,487.54120703125,121.6197,487.77720703125Q114.2714,487.99320703125,106.111,486.31420703125Q98.3255,484.71320703125,91.256,481.70120703124996Q84.12270000000001,478.66320703125,79.2594,474.84320703125Q73.9829,470.69820703125004,72.354,466.35310703125003Q70.46629999999999,461.31790703125,73.6637,456.88850703125Q76.9122,452.38810703125,85.3143,449.04520703125L85.4668,448.98450703125L85.6288,448.95830703125Q124.3318,442.68510703125,170.247,446.74730703125Q189.678,448.46630703125,212.01,452.14560703125Q230.044,455.11680703125,253.248,459.94600703125L252.942,461.41450703124997L253.14,459.92770703125Q314.1,468.05720703125,375.682,464.42220703124997Q437.861,460.75240703125,496.463,445.32970703125L496.501,445.31960703125003L496.539,445.31160703125Q513.024,441.88650703125,531.256,440.86140703125Q547.48,439.94920703125,566.086,440.89670703125Q581.572,441.68540703125,600.964,443.91150703125Q612.581,445.24500703125,635.833,448.40750703125Q661.619,451.91470703125003,674.484,453.32750703125Q695.901,455.67940703125,712.967,456.20630703125Q733.416,456.83750703124997,751.198,455.02590703125Q771.135,452.99490703125,789.109,447.77910703125L789.527,449.21970703125L788.877,447.86820703125Q798.319,443.32270703125,808.505,434.74700703125Q812.614,431.28790703125003,817.571,426.57340703125Q820.557,423.73360703125,826.492,417.86290703125Q835.154,409.29430703125,839.682,405.16300703125Q847.27,398.23880703125,853.979,393.46160703125Q862.081,387.69380703125,870.237,384.04420703125Q879.431,379.93050703125,889.272,378.22900703125L889.527,379.70700703125L888.623,378.51040703125Q895.607,373.23079703125,900.518,366.61793703125L902.927,368.40647703125Z" fill="#E8B02E" fill-opacity="1"/></g><g style="mix-blend-mode:passthrough"><ellipse cx="109" cy="422" rx="4" ry="4" fill="#D8D8D8" fill-opacity="1"/></g></g></svg>