<svg xmlns="http://www.w3.org/2000/svg" viewBox="0 0 68.75 157.53"><defs><style>.cls-1{fill:#00d830;}.cls-2{fill:#262626;}</style></defs><g id="图层_2" data-name="图层 2"><g id="图层_1-2" data-name="图层 1"><path class="cls-1" d="M1.31,27.6H9.68V19.76H1.31Zm3.55-4.74.5-1,.5,1L7,23l-.82.79L6.37,25l-1-.53-1,.53.19-1.13L3.72,23Z"/><rect class="cls-1" x="2.35" y="17.15" width="6.28" height="1.57"/><path class="cls-1" d="M6,1.66V10l1,.59v1.79l-1.55.9-1.55-.9V10.6L5,10V1.66a.31.31,0,0,0-.6-.12L0,11.61l2.83,4.6H8.15L11,11.61,6.62,1.54A.32.32,0,0,0,6,1.66Z"/><rect class="cls-1" x="1.31" y="28.91" width="8.37" height="123.68"/><rect class="cls-1" x="1.31" y="153.9" width="8.37" height="3.29"/><rect class="cls-1" x="23" y="1.68" width="43.78" height="10.34"/><rect class="cls-1" x="23" y="147.19" width="43.78" height="10.34"/><rect class="cls-1" x="23" y="15.95" width="10.39" height="127.67"/><rect class="cls-1" x="52.68" y="20.89" width="12.62" height="4.43"/><rect class="cls-1" x="44.52" y="33.44" width="20.78" height="4.43"/><rect class="cls-1" x="52.68" y="46" width="12.62" height="4.43"/><rect class="cls-1" x="44.52" y="58.56" width="20.78" height="4.43"/><rect class="cls-1" x="52.68" y="71.11" width="12.62" height="4.43"/><rect class="cls-1" x="44.52" y="83.67" width="20.78" height="4.43"/><rect class="cls-1" x="52.68" y="96.22" width="12.62" height="4.43"/><rect class="cls-1" x="44.52" y="108.78" width="20.78" height="4.43"/><rect class="cls-1" x="52.68" y="121.34" width="12.62" height="4.43"/><rect class="cls-1" x="44.52" y="135.37" width="20.78" height="4.43"/><path class="cls-2" d="M3.28,26.25h8.37V18.41H3.28Zm3.55-4.74.5-1,.5,1L9,21.68l-.82.79.19,1.13-1-.53-1,.53.19-1.13-.82-.79Z"/><rect class="cls-2" x="4.32" y="15.79" width="6.28" height="1.57"/><path class="cls-2" d="M8,.31V8.66l1,.59V11l-1.55.9L5.91,11V9.25l1-.59V.31a.31.31,0,0,0-.6-.12L2,10.26,4.8,14.85h5.32L13,10.26,8.59.19A.32.32,0,0,0,8,.31Z"/><rect class="cls-2" x="3.28" y="27.56" width="8.37" height="123.68"/><rect class="cls-2" x="3.28" y="152.55" width="8.37" height="3.29"/><rect class="cls-2" x="24.97" y="0.33" width="43.78" height="10.34"/><rect class="cls-2" x="24.97" y="145.84" width="43.78" height="10.34"/><rect class="cls-2" x="24.97" y="14.6" width="10.39" height="127.67"/><rect class="cls-2" x="54.65" y="19.54" width="12.62" height="4.43"/><rect class="cls-2" x="46.49" y="32.09" width="20.78" height="4.43"/><rect class="cls-2" x="54.65" y="44.65" width="12.62" height="4.43"/><rect class="cls-2" x="46.49" y="57.21" width="20.78" height="4.43"/><rect class="cls-2" x="54.65" y="69.76" width="12.62" height="4.43"/><rect class="cls-2" x="46.49" y="82.32" width="20.78" height="4.43"/><rect class="cls-2" x="54.65" y="94.87" width="12.62" height="4.43"/><rect class="cls-2" x="46.49" y="107.43" width="20.78" height="4.43"/><rect class="cls-2" x="54.65" y="119.99" width="12.62" height="4.43"/><rect class="cls-2" x="46.49" y="134.02" width="20.78" height="4.43"/></g></g></svg>