<svg xmlns="http://www.w3.org/2000/svg" xmlns:xlink="http://www.w3.org/1999/xlink" fill="none" version="1.1" width="160.921142578125" height="114.5380859375" viewBox="0 0 160.921142578125 114.5380859375"><g style="mix-blend-mode:passthrough"><g style="opacity:0.8999999761581421;mix-blend-mode:passthrough"><path d="M87.1468505859375,113.5380859375L109.1468505859375,113.5380859375L109.1468505859375,87.0380859375L109.1468505859375,60.5380859375L87.1468505859375,60.5380859375L87.1468505859375,113.5380859375Z" fill="#40125B" fill-opacity="1"/></g><g style="opacity:0.8999999761581421;mix-blend-mode:passthrough"><rect x="37.1468505859375" y="68.5380859375" width="32" height="45" rx="0" fill="#40125B" fill-opacity="1"/></g><g style="opacity:0.8999999761581421;mix-blend-mode:passthrough"><rect x="31.1468505859375" y="93.5380859375" width="46" height="21" rx="0" fill="#40125B" fill-opacity="1"/></g><g style="opacity:0.8999999761581421;mix-blend-mode:passthrough"><rect x="60.1468505859375" y="80.5380859375" width="18" height="22" rx="0" fill="#40125B" fill-opacity="1"/></g><g style="opacity:0.8999999761581421;mix-blend-mode:passthrough"><rect x="68.1468505859375" y="78.5380859375" width="39" height="13" rx="0" fill="#40125B" fill-opacity="1"/></g><g style="opacity:0.8999999761581421;mix-blend-mode:passthrough"><rect x="58.1468505859375" y="27.5380859375" width="56" height="58" rx="0" fill="#40125B" fill-opacity="1"/></g><g style="opacity:0.8999999761581421;mix-blend-mode:passthrough"><rect x="29.1468505859375" y="31.5380859375" width="29" height="57" rx="0" fill="#40125B" fill-opacity="1"/></g><g style="opacity:0.8999999761581421;mix-blend-mode:passthrough"><rect x="24.1468505859375" y="37.5380859375" width="13" height="48" rx="0" fill="#40125B" fill-opacity="1"/></g><g style="opacity:0.8999999761581421;mix-blend-mode:passthrough"><rect x="107.146728515625" y="42.5380859375" width="23" height="71" rx="0" fill="#40125B" fill-opacity="1"/></g><g style="opacity:0.8999999761581421;mix-blend-mode:passthrough"><rect x="14.1468505859375" y="48.5380859375" width="10" height="33" rx="0" fill="#40125B" fill-opacity="1"/></g><g style="opacity:0.8999999761581421;mix-blend-mode:passthrough"><rect x="17.1468505859375" y="42.5380859375" width="7" height="6" rx="0" fill="#40125B" fill-opacity="1"/></g><g style="mix-blend-mode:passthrough"><rect x="78.1468505859375" y="91.5380859375" width="3" height="7" rx="0" fill="#40125B" fill-opacity="1"/></g><g style="mix-blend-mode:passthrough"><rect x="81.1468505859375" y="91.5380859375" width="6" height="5" rx="0" fill="#40125B" fill-opacity="1"/></g><g style="opacity:0.8999999761581421;mix-blend-mode:passthrough" transform="matrix(0.974640429019928,-0.22377684712409973,0.22377684712409973,0.974640429019928,-2.7980141241059755,20.196639801582933)"><rect x="87.7100830078125" y="22.443359375" width="60.86030578613281" height="48.49930953979492" rx="0" fill="#40125B" fill-opacity="1"/></g><g style="mix-blend-mode:passthrough" transform="matrix(0.974640429019928,-0.22377684712409973,0.22377684712409973,0.974640429019928,-2.855457541947544,20.07549255420963)"><rect x="87.1468505859375" y="22.63623046875" width="63.00022888183594" height="35.64440155029297" rx="0" fill="#4C196A" fill-opacity="1"/></g><g style="mix-blend-mode:passthrough" transform="matrix(0.974640429019928,-0.22377684712409973,0.22377684712409973,0.974640429019928,-5.986058514907199,19.976967291218898)"><rect x="85.1468505859375" y="36.3994140625" width="21.724044799804688" height="31.904783248901367" rx="0" fill="#4C196A" fill-opacity="1"/></g><g style="opacity:0.8999999761581421;mix-blend-mode:passthrough" transform="matrix(0.9567199945449829,0.29100996255874634,-0.29100996255874634,0.9567199945449829,5.494267782341922,-36.942847969112336)"><rect x="126.947021484375" y="0" width="10.849559783935547" height="14.000720024108887" rx="0" fill="#40125B" fill-opacity="1"/></g><g style="opacity:0.8999999761581421;mix-blend-mode:passthrough" transform="matrix(0.969134509563446,-0.24653255939483643,0.24653255939483643,0.969134509563446,-2.950789230540977,26.530710931663634)"><rect x="104.479248046875" y="25.0498046875" width="12.999739646911621" height="7.65122127532959" rx="0" fill="#2F0D43" fill-opacity="1"/></g><g style="mix-blend-mode:passthrough" transform="matrix(0.969134509563446,-0.24653255939483643,0.24653255939483643,0.969134509563446,-4.084593036051956,26.976609937817557)"><rect x="105.693115234375" y="29.80078125" width="12.994850158691406" height="6.395498752593994" rx="0" fill="#2C143A" fill-opacity="1"/></g><g style="mix-blend-mode:passthrough" transform="matrix(0.969134509563446,-0.24653255939483643,0.24653255939483643,0.969134509563446,-3.6033876276487717,28.135581348498818)"><rect x="110.562255859375" y="28.45849609375" width="7.945753574371338" height="4.390708923339844" rx="0" fill="#020103" fill-opacity="1"/></g><g style="mix-blend-mode:passthrough" transform="matrix(0.9729129076004028,-0.2311718463897705,0.2311718463897705,0.9729129076004028,-1.404820228141034,30.195244516711682)"><g style="mix-blend-mode:passthrough"><rect x="128.146728515625" y="21.09228515625" width="28.35193634033203" height="22.45262908935547" rx="0" fill="#612087" fill-opacity="1"/></g><g style="mix-blend-mode:passthrough"><rect x="136.48553276062012" y="26.27366065979004" width="5.0032830238342285" height="13.817002296447754" rx="0" fill="#40125B" fill-opacity="1"/></g><g style="mix-blend-mode:passthrough"><rect x="146.4920997619629" y="24.54653573036194" width="5.0032830238342285" height="13.817002296447754" rx="0" fill="#40125B" fill-opacity="1"/></g></g><g style="opacity:0.8999999761581421;mix-blend-mode:passthrough" transform="matrix(0.9715234637260437,-0.23694345355033875,0.23694345355033875,0.9715234637260437,-1.0291344545039465,19.147883873916726)"><rect x="79.1468505859375" y="13.85546875" width="14.000104904174805" height="18.751140594482422" rx="0" fill="#40125B" fill-opacity="1"/></g><g style="opacity:0.8999999761581421;mix-blend-mode:passthrough" transform="matrix(0.9715234637260437,-0.23694345355033875,0.23694345355033875,0.9715234637260437,0.5997504875631421,21.253024254965567)"><rect x="88.7193603515625" y="8.13134765625" width="3.3440001010894775" height="22.0433292388916" rx="0" fill="#40125B" fill-opacity="1"/></g><g style="opacity:0.8999999761581421;mix-blend-mode:passthrough" transform="matrix(0.9567199945449829,0.29100996255874634,-0.29100996255874634,0.9567199945449829,5.553557651699521,-36.38154614150699)"><rect x="125.089599609375" y="0.47998046875" width="10.486776351928711" height="14.999998092651367" rx="0" fill="#40125B" fill-opacity="1"/></g><g style="opacity:0.8999999761581421;mix-blend-mode:passthrough" transform="matrix(0.9654858708381653,-0.26045534014701843,0.26045534014701843,0.9654858708381653,-8.29116009194695,32.676163164120226)"><rect x="119.147216796875" y="47.6220703125" width="10.866433143615723" height="10.935675621032715" rx="0" fill="#3E0E56" fill-opacity="1"/></g><g style="opacity:0.8999999761581421;mix-blend-mode:passthrough" transform="matrix(0.9716517925262451,-0.2364162802696228,0.2364162802696228,0.9716517925262451,-8.255639710201649,31.484947002711124)"><rect x="127.160400390625" y="50.16748046875" width="28.63540267944336" height="8.474610328674316" rx="0" fill="#3E0E56" fill-opacity="1"/></g><g style="mix-blend-mode:passthrough"><path d="M11.219628046875,67.686890625Q10.564458046875,66.76825062500001,9.708708046875,64.727650625Q9.022128046875,63.090450625,8.591718046875,62.438930625Q7.983538046875,61.518340625,7.161038046875,61.148060625Q6.170738046875,60.697590625,5.0765980468750005,61.131190625Q4.0298180468750004,61.546010625,3.765758046875,62.480600625L3.715528046875,62.658350625L3.623688046875,62.818610625Q2.640228046875,64.534610625,3.217668046875,66.997300625Q3.767538046875,69.342410625,5.3627080468749995,71.220340625Q6.505818046875,72.560740625,8.825618046875,71.875740625Q11.038028046875,71.222440625,13.010998046875,69.422970625L15.032698046875,71.639540625Q12.549598046875,73.904140625,9.675178046875,74.75294062500001Q7.843398046875,75.293840625,6.281268046875,75.014840625Q4.363968046875,74.67244062500001,3.076258046875,73.162540625Q1.012120046875,70.732540625,0.2968780468750001,67.682150625Q-0.5504219531249999,64.068540625,1.0208450468749999,61.326890625L2.322266046875,62.072750625L0.878776046875,61.664910625Q1.2128500468749999,60.482510625,2.080961046875,59.590412625Q2.871448046875,58.778081625,3.971358046875,58.342200625Q6.251608046875,57.438570625,8.392548046875,58.412480625Q10.007568046875,59.139539625,11.094818046875,60.785310625Q11.680098046875,61.671200625,12.475298046875,63.567460625Q13.201498046875,65.299080625,13.662098046875,65.944940625L11.219628046875,67.686890625Z" fill="#D8D8D8" fill-opacity="1"/></g><g style="opacity:0.8999999761581421;mix-blend-mode:passthrough"><rect x="5.1468505859375" y="109.5380859375" width="17" height="4" rx="0" fill="#40125B" fill-opacity="1"/></g><g style="opacity:0.8999999761581421;mix-blend-mode:passthrough"><rect x="8.1468505859375" y="105.5380859375" width="12" height="6" rx="0" fill="#40125B" fill-opacity="1"/></g><g style="opacity:0.8999999761581421;mix-blend-mode:passthrough"><rect x="11.1468505859375" y="102.5380859375" width="6" height="5" rx="0" fill="#40125B" fill-opacity="1"/></g><g style="opacity:0.8999999761581421;mix-blend-mode:passthrough"><rect x="13.1468505859375" y="99.5380859375" width="4" height="5" rx="0" fill="#40125B" fill-opacity="1"/></g></g></svg>