<svg xmlns="http://www.w3.org/2000/svg" viewBox="0 0 207.78 146.47"><defs><style>.cls-1{fill:#333;}.cls-2{fill:#fff;}</style></defs><g id="图层_2" data-name="图层 2"><g id="图层_1-2" data-name="图层 1"><path class="cls-1" d="M193.34,0H14.44A14.45,14.45,0,0,0,0,14.44V132a14.45,14.45,0,0,0,14.44,14.45h178.9A14.45,14.45,0,0,0,207.78,132V14.44A14.45,14.45,0,0,0,193.34,0ZM130.15,13.56a2,2,0,0,1-2.05,2H79.68a2,2,0,0,1-2.05-2v-1a2.05,2.05,0,0,1,2.05-2.05h21.38a2.83,2.83,0,0,1,5.66,0H128.1a2.05,2.05,0,0,1,2.05,2.05Z"/><polygon class="cls-2" points="174.19 78.47 151.85 124.93 157.16 132.36 169.35 124 159.86 124 174.19 93.34 188.52 124 179.04 124 191.19 132.36 196.5 124.93 174.19 78.47"/></g></g></svg>