<svg xmlns="http://www.w3.org/2000/svg" viewBox="0 0 27.73 72.58"><defs><style>.cls-1,.cls-3{fill:#00d830;}.cls-2{fill:#262626;}.cls-3,.cls-4{font-size:7px;font-family:MicrosoftYaHei-Bold, Microsoft YaHei;font-weight:700;}.cls-4{fill:#1a1a1a;}</style></defs><g id="图层_2" data-name="图层 2"><g id="图层_1-2" data-name="图层 1"><path class="cls-1" d="M.48,10.24H3.59V7.33H.48ZM1.8,8.48,2,8.1l.19.38.42.07-.31.29.07.42L2,9.06l-.38.2.07-.42-.3-.29Z"/><rect class="cls-1" x="0.87" y="6.36" width="2.33" height="0.58"/><path class="cls-1" d="M2.23.62V3.71l.38.23V4.6L2,4.93,1.46,4.6V3.94l.38-.23V.62A.12.12,0,0,0,1.62.57L0,4.31,1.05,6H3l1.06-1.7L2.46.57A.12.12,0,0,0,2.23.62Z"/><rect class="cls-1" x="0.49" y="10.73" width="3.11" height="45.9"/><rect class="cls-1" x="0.49" y="57.11" width="3.11" height="1.22"/><rect class="cls-1" x="8.54" y="0.63" width="16.25" height="3.84"/><rect class="cls-1" x="8.54" y="54.62" width="16.25" height="3.84"/><rect class="cls-1" x="8.53" y="5.92" width="3.86" height="47.38"/><rect class="cls-1" x="19.55" y="7.75" width="4.68" height="1.64"/><rect class="cls-1" x="16.52" y="12.41" width="7.71" height="1.64"/><rect class="cls-1" x="19.55" y="17.07" width="4.68" height="1.64"/><rect class="cls-1" x="16.52" y="21.73" width="7.71" height="1.64"/><rect class="cls-1" x="19.55" y="26.39" width="4.68" height="1.64"/><rect class="cls-1" x="16.52" y="31.05" width="7.71" height="1.64"/><rect class="cls-1" x="19.55" y="35.71" width="4.68" height="1.64"/><rect class="cls-1" x="16.52" y="40.37" width="7.71" height="1.64"/><rect class="cls-1" x="19.55" y="45.03" width="4.68" height="1.64"/><rect class="cls-1" x="16.52" y="50.24" width="7.71" height="1.64"/><path class="cls-2" d="M1.22,9.74h3.1V6.83H1.22ZM2.53,8l.19-.38L2.91,8,3.33,8,3,8.34l.08.42-.38-.2-.38.2.08-.42L2.11,8Z"/><rect class="cls-2" x="1.6" y="5.86" width="2.33" height="0.58"/><path class="cls-2" d="M3,.12V3.21l.38.22V4.1l-.57.33L2.19,4.1V3.43l.38-.22V.12a.11.11,0,0,0-.22,0L.73,3.81l1.05,1.7h2l1.06-1.7L3.19.07A.12.12,0,0,0,3,.12Z"/><rect class="cls-2" x="1.22" y="10.23" width="3.11" height="45.9"/><rect class="cls-2" x="1.22" y="56.61" width="3.11" height="1.22"/><rect class="cls-2" x="9.27" y="0.12" width="16.25" height="3.84"/><rect class="cls-2" x="9.27" y="54.12" width="16.25" height="3.84"/><rect class="cls-2" x="9.27" y="5.42" width="3.86" height="47.38"/><rect class="cls-2" x="20.28" y="7.25" width="4.68" height="1.64"/><rect class="cls-2" x="17.25" y="11.91" width="7.71" height="1.64"/><rect class="cls-2" x="20.28" y="16.57" width="4.68" height="1.64"/><rect class="cls-2" x="17.25" y="21.23" width="7.71" height="1.64"/><rect class="cls-2" x="20.28" y="25.89" width="4.68" height="1.64"/><rect class="cls-2" x="17.25" y="30.55" width="7.71" height="1.64"/><rect class="cls-2" x="20.28" y="35.21" width="4.68" height="1.64"/><rect class="cls-2" x="17.25" y="39.87" width="7.71" height="1.64"/><rect class="cls-2" x="20.28" y="44.53" width="4.68" height="1.64"/><rect class="cls-2" x="17.25" y="49.74" width="7.71" height="1.64"/><text class="cls-3" transform="translate(1.76 69.61)">UI设计</text><text class="cls-4" transform="translate(2.22 69.58)">UI设计</text></g></g></svg>