<svg xmlns="http://www.w3.org/2000/svg" xmlns:xlink="http://www.w3.org/1999/xlink" fill="none" version="1.1" width="112" height="126" viewBox="0 0 112 126"><g style="mix-blend-mode:passthrough"><g style="mix-blend-mode:passthrough"><rect x="66" y="0" width="31" height="31" rx="0" fill="#28AF16" fill-opacity="0.8299999833106995"/></g><g style="mix-blend-mode:passthrough"><rect x="41" y="15" width="31" height="31" rx="0" fill="#2BD428" fill-opacity="0.8500000238418579"/></g><g style="mix-blend-mode:passthrough"><rect x="22" y="2" width="31" height="31" rx="0" fill="#299F2B" fill-opacity="0.699999988079071"/></g><g style="mix-blend-mode:passthrough"><rect x="10" y="36" width="31" height="31" rx="0" fill="#22BB55" fill-opacity="1"/></g><g style="mix-blend-mode:passthrough"><rect x="0" y="95" width="31" height="31" rx="0" fill="#4EAF3C" fill-opacity="0.8799999952316284"/></g><g style="mix-blend-mode:passthrough"><rect x="10" y="81" width="31" height="31" rx="0" fill="#0F962A" fill-opacity="0.5600000023841858"/></g><g style="mix-blend-mode:passthrough"><rect x="31" y="54" width="20" height="20" rx="0" fill="#2AA41A" fill-opacity="0.7799999713897705"/></g><g style="mix-blend-mode:passthrough"><rect x="83" y="71" width="17" height="17" rx="0" fill="#8A5727" fill-opacity="1"/></g><g style="mix-blend-mode:passthrough"><rect x="72" y="64" width="17" height="17" rx="0" fill="#8A5727" fill-opacity="1"/></g><g style="mix-blend-mode:passthrough"><rect x="58" y="47" width="17" height="17" rx="0" fill="#2B8123" fill-opacity="1"/></g><g style="mix-blend-mode:passthrough"><rect x="63" y="89" width="17" height="17" rx="0" fill="#B87A3F" fill-opacity="1"/></g><g style="mix-blend-mode:passthrough"><rect x="54" y="97" width="12" height="12" rx="0" fill="#D8D8D8" fill-opacity="1"/></g><g style="mix-blend-mode:passthrough"><rect x="54" y="97" width="12" height="12" rx="0" fill="#A26C39" fill-opacity="1"/></g><g style="mix-blend-mode:passthrough"><rect x="41" y="95" width="13" height="12" rx="0" fill="#8A5727" fill-opacity="1"/></g><g style="mix-blend-mode:passthrough"><rect x="80" y="81" width="17" height="17" rx="0" fill="#D8D8D8" fill-opacity="1"/></g><g style="mix-blend-mode:passthrough"><rect x="85" y="84" width="17" height="17" rx="0" fill="#8A5727" fill-opacity="1"/></g><g style="mix-blend-mode:passthrough"><rect x="91" y="99" width="17" height="16" rx="0" fill="#845222" fill-opacity="1"/></g><g style="mix-blend-mode:passthrough"><rect x="80" y="81" width="17" height="17" rx="0" fill="#A56D38" fill-opacity="1"/></g><g style="mix-blend-mode:passthrough"><rect x="81" y="36" width="12" height="12" rx="0" fill="#2AA41A" fill-opacity="0.7799999713897705"/></g><g style="mix-blend-mode:passthrough"><rect x="95" y="106" width="17" height="17" rx="0" fill="#6F4217" fill-opacity="1"/></g></g></svg>